<?xml version="1.0" encoding="utf-8"?>
<svg viewBox="0 0 32 32" xmlns="http://www.w3.org/2000/svg" xmlns:xlink="http://www.w3.org/1999/xlink">
<style type="text/css">
	.st0{fill:#FFB60D;}
</style>
<g>
	<path class="st0" d="M16.4,28h-0.9C11.4,28,8,24.6,8,20.4v-8.9C8,7.4,11.4,4,15.6,4h0.9c4.2,0,7.6,3.4,7.6,7.6v8.9
		C24,24.6,20.6,28,16.4,28z"/>
	<path class="st0" d="M24.8,28H7.2C5.4,28,4,26.6,4,24.8v-1.7C4,21.4,5.4,20,7.2,20h17.7c1.7,0,3.2,1.4,3.2,3.2v1.7
		C28,26.6,26.6,28,24.8,28z"/>
	<circle class="st0" cx="16" cy="4" r="2"/>
	<circle class="st0" cx="16" cy="26" r="4"/>
</g>
</svg>
