<?xml version="1.0" encoding="utf-8"?>
<svg viewBox="0 0 32 32" xmlns="http://www.w3.org/2000/svg" xmlns:xlink="http://www.w3.org/1999/xlink">
<style type="text/css">
	.st0{enable-background:new    ;}
	.st1{fill:#805B07;}
	.st2{fill:#EBA80C;}
	.st3{clip-path:url(#SVGID_2_);fill:none;stroke:#000000;stroke-width:0.25;stroke-miterlimit:10;}
	.st4{clip-path:url(#SVGID_4_);fill:none;stroke:#000000;stroke-width:0.25;stroke-miterlimit:10;}
	.st5{clip-path:url(#SVGID_6_);fill:none;stroke:#000000;stroke-width:0.25;stroke-miterlimit:10;}
	.st6{clip-path:url(#SVGID_8_);fill:none;stroke:#000000;stroke-width:0.25;stroke-miterlimit:10;}
	.st7{clip-path:url(#SVGID_10_);fill:none;stroke:#000000;stroke-width:0.25;stroke-miterlimit:10;}
	.st8{clip-path:url(#SVGID_12_);fill:none;stroke:#000000;stroke-width:0.25;stroke-miterlimit:10;}
	.st9{clip-path:url(#SVGID_14_);fill:none;stroke:#000000;stroke-width:0.25;stroke-miterlimit:10;}
	.st10{clip-path:url(#SVGID_16_);fill:none;stroke:#000000;stroke-width:0.25;stroke-miterlimit:10;}
	.st11{clip-path:url(#SVGID_18_);fill:none;stroke:#000000;stroke-width:0.25;stroke-miterlimit:10;}
	.st12{clip-path:url(#SVGID_20_);fill:none;stroke:#000000;stroke-width:0.25;stroke-miterlimit:10;}
	.st13{clip-path:url(#SVGID_22_);fill:none;stroke:#000000;stroke-width:0.25;stroke-miterlimit:10;}
	.st14{clip-path:url(#SVGID_24_);fill:none;stroke:#000000;stroke-width:0.25;stroke-miterlimit:10;}
	.st15{clip-path:url(#SVGID_26_);fill:none;stroke:#000000;stroke-width:0.25;stroke-miterlimit:10;}
	.st16{clip-path:url(#SVGID_28_);fill:none;stroke:#000000;stroke-width:0.25;stroke-miterlimit:10;}
	.st17{clip-path:url(#SVGID_30_);fill:none;stroke:#000000;stroke-width:0.25;stroke-miterlimit:10;}
	.st18{clip-path:url(#SVGID_32_);fill:none;stroke:#000000;stroke-width:0.25;stroke-miterlimit:10;}
	.st19{clip-path:url(#SVGID_34_);fill:none;stroke:#000000;stroke-width:0.25;stroke-miterlimit:10;}
	.st20{clip-path:url(#SVGID_36_);fill:none;stroke:#000000;stroke-width:0.25;stroke-miterlimit:10;}
	.st21{clip-path:url(#SVGID_38_);fill:none;stroke:#000000;stroke-width:0.25;stroke-miterlimit:10;}
	.st22{clip-path:url(#SVGID_40_);fill:none;stroke:#000000;stroke-width:0.25;stroke-miterlimit:10;}
	.st23{clip-path:url(#SVGID_42_);fill:none;stroke:#000000;stroke-width:0.25;stroke-miterlimit:10;}
	.st24{clip-path:url(#SVGID_44_);fill:none;stroke:#000000;stroke-width:0.25;stroke-miterlimit:10;}
</style>
<g>
	<g>
		<g class="st0">
			<g>
				<polygon class="st1" points="19.9,14.9 17.7,17.1 14.8,14.3 17,12.1 				"/>
			</g>
			<g>
				<polygon class="st1" points="17,12.1 14.8,14.3 21.7,7.3 23.9,5.1 				"/>
			</g>
			<g>
				<polygon class="st2" points="9.9,5.1 17,12.1 19.9,14.9 27,21.9 24.3,24.7 17.2,17.7 14.3,14.9 7.2,7.9 				"/>
			</g>
			<g>
				<rect x="17" y="8" transform="matrix(0.6991 -0.715 0.715 0.6991 -0.5471 18.6689)" class="st2" width="9.8" height="4"/>
			</g>
			<g>
				<polygon class="st1" points="24.3,24.7 22.1,26.9 15,19.9 17.2,17.7 				"/>
			</g>
			<g>
				<polygon class="st1" points="17.2,17.7 15,19.9 12.1,17.1 14.3,14.9 				"/>
			</g>
			<g>
				<polygon class="st1" points="7.2,7.9 5,10.1 7.7,7.3 9.9,5.1 				"/>
			</g>
			<g>
				<polygon class="st1" points="7.4,21.9 5.2,24.1 12.1,17.1 14.3,14.9 				"/>
			</g>
			<g>
				<polygon class="st1" points="14.3,14.9 12.1,17.1 5,10.1 7.2,7.9 				"/>
			</g>
			<g>
				
					<rect x="7.4" y="17.8" transform="matrix(0.7001 -0.7141 0.7141 0.7001 -10.4421 14.7149)" class="st2" width="9.8" height="4"/>
			</g>
			<g>
				<polygon class="st1" points="10.3,24.7 8.1,26.9 5.2,24.1 7.4,21.9 				"/>
			</g>
		</g>
	</g>
</g>
<g>
	<g>
		<g class="st0">
			<g class="st0">
				<defs>
					
						<rect id="SVGID_1_" x="14.8" y="10.2" transform="matrix(0.7002 -0.7139 0.7139 0.7002 -2.8113 17.7287)" class="st0" width="9.8" height="4"/>
				</defs>
				<clipPath id="SVGID_2_">
					<use xlink:href="#SVGID_1_"  style="overflow:visible;"/>
				</clipPath>
				
					<rect x="14.8" y="10.2" transform="matrix(0.7002 -0.7139 0.7139 0.7002 -2.8113 17.7287)" class="st3" width="9.8" height="4"/>
			</g>
			<g class="st0">
				<defs>
					
						<rect id="SVGID_3_" x="17" y="8" transform="matrix(0.7002 -0.7139 0.7139 0.7002 -0.5606 18.6354)" class="st0" width="9.8" height="4"/>
				</defs>
				<clipPath id="SVGID_4_">
					<use xlink:href="#SVGID_3_"  style="overflow:visible;"/>
				</clipPath>
				<rect x="17" y="8" transform="matrix(0.7002 -0.7139 0.7139 0.7002 -0.5606 18.6354)" class="st4" width="9.8" height="4"/>
			</g>
			<g class="st0">
				<defs>
					<polygon id="SVGID_5_" class="st0" points="23.9,5.1 26.8,7.9 24.6,10.1 21.7,7.3 					"/>
				</defs>
				<clipPath id="SVGID_6_">
					<use xlink:href="#SVGID_5_"  style="overflow:visible;"/>
				</clipPath>
				<polygon class="st5" points="23.9,5.1 26.8,7.9 24.6,10.1 21.7,7.3 				"/>
			</g>
			<g class="st0">
				<defs>
					<polygon id="SVGID_7_" class="st0" points="26.8,7.9 19.9,14.9 17.7,17.1 24.6,10.1 					"/>
				</defs>
				<clipPath id="SVGID_8_">
					<use xlink:href="#SVGID_7_"  style="overflow:visible;"/>
				</clipPath>
				<polygon class="st6" points="26.8,7.9 19.9,14.9 17.7,17.1 24.6,10.1 				"/>
			</g>
			<g class="st0">
				<defs>
					<polygon id="SVGID_9_" class="st0" points="19.9,14.9 17.7,17.1 14.8,14.3 17,12.1 					"/>
				</defs>
				<clipPath id="SVGID_10_">
					<use xlink:href="#SVGID_9_"  style="overflow:visible;"/>
				</clipPath>
				<polygon class="st7" points="19.9,14.9 17.7,17.1 14.8,14.3 17,12.1 				"/>
			</g>
			<g class="st0">
				<defs>
					<polygon id="SVGID_11_" class="st0" points="17,12.1 14.8,14.3 21.7,7.3 23.9,5.1 					"/>
				</defs>
				<clipPath id="SVGID_12_">
					<use xlink:href="#SVGID_11_"  style="overflow:visible;"/>
				</clipPath>
				<polygon class="st8" points="17,12.1 14.8,14.3 21.7,7.3 23.9,5.1 				"/>
			</g>
			<g class="st0">
				<defs>
					
						<rect id="SVGID_13_" x="5.2" y="20" transform="matrix(0.7003 -0.7139 0.7139 0.7003 -12.6906 13.8023)" class="st0" width="9.8" height="4"/>
				</defs>
				<clipPath id="SVGID_14_">
					<use xlink:href="#SVGID_13_"  style="overflow:visible;"/>
				</clipPath>
				<rect x="5.2" y="20" transform="matrix(0.7003 -0.7139 0.7139 0.7003 -12.6906 13.8023)" class="st9" width="9.8" height="4"/>
			</g>
			<g class="st0">
				<defs>
					
						<rect id="SVGID_15_" x="7.4" y="17.8" transform="matrix(0.7003 -0.7139 0.7139 0.7003 -10.4401 14.709)" class="st0" width="9.8" height="4"/>
				</defs>
				<clipPath id="SVGID_16_">
					<use xlink:href="#SVGID_15_"  style="overflow:visible;"/>
				</clipPath>
				
					<rect x="7.4" y="17.8" transform="matrix(0.7003 -0.7139 0.7139 0.7003 -10.4401 14.709)" class="st10" width="9.8" height="4"/>
			</g>
			<g class="st0">
				<defs>
					<polygon id="SVGID_17_" class="st0" points="7.4,21.9 5.2,24.1 12.1,17.1 14.3,14.9 					"/>
				</defs>
				<clipPath id="SVGID_18_">
					<use xlink:href="#SVGID_17_"  style="overflow:visible;"/>
				</clipPath>
				<polygon class="st11" points="7.4,21.9 5.2,24.1 12.1,17.1 14.3,14.9 				"/>
			</g>
			<g class="st0">
				<defs>
					<polygon id="SVGID_19_" class="st0" points="14.3,14.9 17.2,17.7 15,19.9 12.1,17.1 					"/>
				</defs>
				<clipPath id="SVGID_20_">
					<use xlink:href="#SVGID_19_"  style="overflow:visible;"/>
				</clipPath>
				<polygon class="st12" points="14.3,14.9 17.2,17.7 15,19.9 12.1,17.1 				"/>
			</g>
			<g class="st0">
				<defs>
					<polygon id="SVGID_21_" class="st0" points="17.2,17.7 10.3,24.7 8.1,26.9 15,19.9 					"/>
				</defs>
				<clipPath id="SVGID_22_">
					<use xlink:href="#SVGID_21_"  style="overflow:visible;"/>
				</clipPath>
				<polygon class="st13" points="17.2,17.7 10.3,24.7 8.1,26.9 15,19.9 				"/>
			</g>
			<g class="st0">
				<defs>
					<polygon id="SVGID_23_" class="st0" points="10.3,24.7 8.1,26.9 5.2,24.1 7.4,21.9 					"/>
				</defs>
				<clipPath id="SVGID_24_">
					<use xlink:href="#SVGID_23_"  style="overflow:visible;"/>
				</clipPath>
				<polygon class="st14" points="10.3,24.7 8.1,26.9 5.2,24.1 7.4,21.9 				"/>
			</g>
			<g class="st0">
				<defs>
					<polygon id="SVGID_25_" class="st0" points="7.7,7.3 14.8,14.3 17.7,17.1 24.8,24.1 22.1,26.9 15,19.9 12.1,17.1 5,10.1 					
						"/>
				</defs>
				<clipPath id="SVGID_26_">
					<use xlink:href="#SVGID_25_"  style="overflow:visible;"/>
				</clipPath>
				<polygon class="st15" points="7.7,7.3 14.8,14.3 17.7,17.1 24.8,24.1 22.1,26.9 15,19.9 12.1,17.1 5,10.1 				"/>
			</g>
			<g class="st0">
				<defs>
					<polygon id="SVGID_27_" class="st0" points="9.9,5.1 17,12.1 19.9,14.9 27,21.9 24.3,24.7 17.2,17.7 14.3,14.9 7.2,7.9 					
						"/>
				</defs>
				<clipPath id="SVGID_28_">
					<use xlink:href="#SVGID_27_"  style="overflow:visible;"/>
				</clipPath>
				<polygon class="st16" points="9.9,5.1 17,12.1 19.9,14.9 27,21.9 24.3,24.7 17.2,17.7 14.3,14.9 7.2,7.9 				"/>
			</g>
			<g class="st0">
				<defs>
					<polygon id="SVGID_29_" class="st0" points="9.9,5.1 17,12.1 14.8,14.3 7.7,7.3 					"/>
				</defs>
				<clipPath id="SVGID_30_">
					<use xlink:href="#SVGID_29_"  style="overflow:visible;"/>
				</clipPath>
				<polygon class="st17" points="9.9,5.1 17,12.1 14.8,14.3 7.7,7.3 				"/>
			</g>
			<g class="st0">
				<defs>
					<polygon id="SVGID_31_" class="st0" points="17,12.1 19.9,14.9 17.7,17.1 14.8,14.3 					"/>
				</defs>
				<clipPath id="SVGID_32_">
					<use xlink:href="#SVGID_31_"  style="overflow:visible;"/>
				</clipPath>
				<polygon class="st18" points="17,12.1 19.9,14.9 17.7,17.1 14.8,14.3 				"/>
			</g>
			<g class="st0">
				<defs>
					<polygon id="SVGID_33_" class="st0" points="19.9,14.9 27,21.9 24.8,24.1 17.7,17.1 					"/>
				</defs>
				<clipPath id="SVGID_34_">
					<use xlink:href="#SVGID_33_"  style="overflow:visible;"/>
				</clipPath>
				<polygon class="st19" points="19.9,14.9 27,21.9 24.8,24.1 17.7,17.1 				"/>
			</g>
			<g class="st0">
				<defs>
					<polygon id="SVGID_35_" class="st0" points="27,21.9 24.3,24.7 22.1,26.9 24.8,24.1 					"/>
				</defs>
				<clipPath id="SVGID_36_">
					<use xlink:href="#SVGID_35_"  style="overflow:visible;"/>
				</clipPath>
				<polygon class="st20" points="27,21.9 24.3,24.7 22.1,26.9 24.8,24.1 				"/>
			</g>
			<g class="st0">
				<defs>
					<polygon id="SVGID_37_" class="st0" points="24.3,24.7 22.1,26.9 15,19.9 17.2,17.7 					"/>
				</defs>
				<clipPath id="SVGID_38_">
					<use xlink:href="#SVGID_37_"  style="overflow:visible;"/>
				</clipPath>
				<polygon class="st21" points="24.3,24.7 22.1,26.9 15,19.9 17.2,17.7 				"/>
			</g>
			<g class="st0">
				<defs>
					<polygon id="SVGID_39_" class="st0" points="17.2,17.7 15,19.9 12.1,17.1 14.3,14.9 					"/>
				</defs>
				<clipPath id="SVGID_40_">
					<use xlink:href="#SVGID_39_"  style="overflow:visible;"/>
				</clipPath>
				<polygon class="st22" points="17.2,17.7 15,19.9 12.1,17.1 14.3,14.9 				"/>
			</g>
			<g class="st0">
				<defs>
					<polygon id="SVGID_41_" class="st0" points="14.3,14.9 12.1,17.1 5,10.1 7.2,7.9 					"/>
				</defs>
				<clipPath id="SVGID_42_">
					<use xlink:href="#SVGID_41_"  style="overflow:visible;"/>
				</clipPath>
				<polygon class="st23" points="14.3,14.9 12.1,17.1 5,10.1 7.2,7.9 				"/>
			</g>
			<g class="st0">
				<defs>
					<polygon id="SVGID_43_" class="st0" points="7.2,7.9 5,10.1 7.7,7.3 9.9,5.1 					"/>
				</defs>
				<clipPath id="SVGID_44_">
					<use xlink:href="#SVGID_43_"  style="overflow:visible;"/>
				</clipPath>
				<polygon class="st24" points="7.2,7.9 5,10.1 7.7,7.3 9.9,5.1 				"/>
			</g>
		</g>
	</g>
</g>
</svg>
