<?xml version="1.0" encoding="utf-8"?>
<svg viewBox="0 0 32 32" xmlns="http://www.w3.org/2000/svg" xmlns:xlink="http://www.w3.org/1999/xlink">
<style type="text/css">
	.st0{fill:#F5F5F5;}
	.st1{fill:none;stroke:#F5F5F5;stroke-width: 2;}
	.st2{fill:none;stroke:#F5F5F5;stroke-width: 2;stroke-dasharray:3.4286,3.4286;}
	.st3{fill:none;stroke:#F5F5F5;stroke-width: 2;stroke-dasharray:3.2,3.2;}
</style>
<g>
	<path class="st0" d="M9.3,17.6v-2h4.9v4.6c-0.5,0.5-1.2,0.9-2.1,1.3c-0.9,0.4-1.8,0.5-2.7,0.5c-1.2,0-2.2-0.3-3.1-0.8
		c-0.9-0.5-1.5-1.2-2-2.2c-0.4-0.9-0.7-2-0.7-3.1c0-1.2,0.2-2.3,0.7-3.2c0.5-0.9,1.2-1.7,2.1-2.2c0.7-0.4,1.6-0.6,2.7-0.6
		c1.4,0,2.5,0.3,3.2,0.9c0.8,0.6,1.3,1.4,1.5,2.5l-2.2,0.4c-0.2-0.6-0.5-1-0.9-1.3c-0.4-0.3-1-0.5-1.6-0.5c-1,0-1.8,0.3-2.4,1
		c-0.6,0.6-0.9,1.6-0.9,2.9c0,1.4,0.3,2.4,0.9,3.1c0.6,0.7,1.4,1,2.3,1c0.5,0,0.9-0.1,1.4-0.3c0.5-0.2,0.9-0.4,1.2-0.7v-1.5H9.3z"/>
	<path class="st0" d="M16.2,21.9V10.3h2.3v11.6H16.2z"/>
	<path class="st0" d="M20.6,21.9V10.3h7.7v2h-5.4V15h4.7v2h-4.7v4.9H20.6z"/>
</g>
<g>
	<g>
		<polyline class="st1" points="30,24 30,26 28,26 		"/>
		<line class="st2" x1="24.6" y1="26" x2="5.7" y2="26"/>
		<polyline class="st1" points="4,26 2,26 2,24 		"/>
		<line class="st3" x1="2" y1="20.8" x2="2" y2="9.6"/>
		<polyline class="st1" points="2,8 2,6 4,6 		"/>
		<line class="st2" x1="7.4" y1="6" x2="26.3" y2="6"/>
		<polyline class="st1" points="28,6 30,6 30,8 		"/>
		<line class="st3" x1="30" y1="11.2" x2="30" y2="22.4"/>
	</g>
</g>
</svg>
