<?xml version="1.0" encoding="utf-8"?>
<svg viewBox="0 0 32 32" xmlns="http://www.w3.org/2000/svg" xmlns:xlink="http://www.w3.org/1999/xlink">
<style type="text/css">
 polyline, line {fill:none;stroke:#F5F5F5;stroke-width:2;stroke-miterlimit:10;}
 path {fill:#F5F5F5;stroke:none;}
 .o{stroke-dasharray:4.2,4.2;}
 .e{stroke-dasharray:5,5;}
</style>
<g>
  <path d="M10.6,17.5v-2h4v4.6c-0.4,0.5-0.9,0.9-1.7,1.3c-0.7,0.4-1.5,0.5-2.2,0.5c-1,0-1.8-0.3-2.5-0.8c-0.7-0.5-1.2-1.2-1.6-2.2
    S6,17.1,6,16c0-1.2,0.2-2.3,0.6-3.2c0.4-0.9,1-1.7,1.7-2.2c0.6-0.4,1.3-0.6,2.2-0.6c1.1,0,2,0.3,2.6,0.9c0.6,0.6,1,1.4,1.2,2.5
    l-1.8,0.4c-0.1-0.6-0.4-1-0.7-1.3c-0.4-0.3-0.8-0.5-1.3-0.5c-0.8,0-1.4,0.3-1.9,1s-0.7,1.6-0.7,2.9c0,1.4,0.2,2.4,0.7,3.1
    c0.5,0.7,1.1,1,1.9,1c0.4,0,0.8-0.1,1.2-0.3c0.4-0.2,0.7-0.4,1-0.7v-1.5H10.6z"/>
  <path d="M16.2,21.8V10.2H18v11.6H16.2z"/>
  <path d="M19.8,21.8V10.2H26v2h-4.4v2.7h3.8v2h-3.8v4.9H19.8z"/>
</g>
<g>
  <g>
    <polyline points="29,23.5 29,26 26.5,26"/>
    <line class="o" x1="22.3" y1="26" x2="7.6" y2="26"/>
    <polyline points="5.5,26 3,26 3,23.5"/>
    <line class="e" x1="3" y1="18.5" x2="3" y2="11"/>
    <polyline points="3,8.5 3,6 5.5,6"/>
    <line class="o" x1="9.7" y1="6" x2="24.4" y2="6"/>
    <polyline points="26.5,6 29,6 29,8.5"/>
    <line class="e" x1="29" y1="13.5" x2="29" y2="21"/>
  </g>
</g>
</svg>
