<?xml version="1.0" encoding="utf-8"?>
<svg viewBox="0 0 128 32" xmlns="http://www.w3.org/2000/svg" xmlns:xlink="http://www.w3.org/1999/xlink">
<style type="text/css">
	.st0{enable-background:new    ;}
	.st1{fill:#11A3CD;}
	.st2{fill:#09596F;}
	.st3{clip-path:url(#SVGID_2_);fill:none;stroke:#000000;stroke-width:0.25;stroke-miterlimit:10;}
	.st4{clip-path:url(#SVGID_4_);fill:none;stroke:#000000;stroke-width:0.25;stroke-miterlimit:10;}
	.st5{clip-path:url(#SVGID_6_);fill:none;stroke:#000000;stroke-width:0.25;stroke-miterlimit:10;}
	.st6{clip-path:url(#SVGID_8_);fill:none;stroke:#000000;stroke-width:0.25;stroke-miterlimit:10;}
	.st7{clip-path:url(#SVGID_10_);fill:none;stroke:#000000;stroke-width:0.25;stroke-miterlimit:10;}
	.st8{clip-path:url(#SVGID_12_);fill:none;stroke:#000000;stroke-width:0.25;stroke-miterlimit:10;}
	.st9{clip-path:url(#SVGID_14_);fill:none;stroke:#000000;stroke-width:0.25;stroke-miterlimit:10;}
	.st10{clip-path:url(#SVGID_16_);fill:none;stroke:#000000;stroke-width:0.25;stroke-miterlimit:10;}
	.st11{clip-path:url(#SVGID_18_);fill:none;stroke:#000000;stroke-width:0.25;stroke-miterlimit:10;}
	.st12{clip-path:url(#SVGID_20_);fill:none;stroke:#000000;stroke-width:0.25;stroke-miterlimit:10;}
	.st13{clip-path:url(#SVGID_22_);fill:none;stroke:#000000;stroke-width:0.25;stroke-miterlimit:10;}
	.st14{clip-path:url(#SVGID_24_);fill:none;stroke:#000000;stroke-width:0.25;stroke-miterlimit:10;}
	.st15{clip-path:url(#SVGID_26_);fill:none;stroke:#000000;stroke-width:0.25;stroke-miterlimit:10;}
	.st16{clip-path:url(#SVGID_28_);fill:none;stroke:#000000;stroke-width:0.25;stroke-miterlimit:10;}
	.st17{clip-path:url(#SVGID_30_);fill:none;stroke:#000000;stroke-width:0.25;stroke-miterlimit:10;}
	.st18{clip-path:url(#SVGID_32_);fill:none;stroke:#000000;stroke-width:0.25;stroke-miterlimit:10;}
	.st19{clip-path:url(#SVGID_34_);fill:none;stroke:#000000;stroke-width:0.25;stroke-miterlimit:10;}
	.st20{clip-path:url(#SVGID_36_);fill:none;stroke:#000000;stroke-width:0.25;stroke-miterlimit:10;}
</style>
<g>
	<g>
		<g class="st0">
			<g>
				<polygon class="st1" points="28.9,12.9 29,16.9 5.3,16.9 5.2,12.9 				"/>
			</g>
			<g>
				<polygon class="st2" points="29,16.9 26.8,19.1 3,19.1 5.3,16.9 				"/>
			</g>
			<g>
				<polygon class="st2" points="5.3,16.9 3,19.1 3,15.1 5.2,12.9 				"/>
			</g>
		</g>
		<g class="st0">
			<g>
				<polygon class="st1" points="28.8,5 28.9,8.9 5.1,8.9 5,5 				"/>
			</g>
			<g>
				<polygon class="st2" points="28.9,8.9 26.7,11.2 2.9,11.2 5.1,8.9 				"/>
			</g>
			<g>
				<polygon class="st2" points="5.1,8.9 2.9,11.2 2.8,7.2 5,5 				"/>
			</g>
		</g>
		<g class="st0">
			<g>
				<polygon class="st1" points="29.1,20.8 29.2,24.8 5.4,24.8 5.3,20.8 				"/>
			</g>
			<g>
				<polygon class="st2" points="29.2,24.8 27,27 3.2,27 5.4,24.8 				"/>
			</g>
			<g>
				<polygon class="st2" points="5.4,24.8 3.2,27 3.1,23.1 5.3,20.8 				"/>
			</g>
		</g>
	</g>
</g>
<g>
	<g>
		<g class="st0">
			<g class="st0">
				<defs>
					<polygon id="SVGID_1_" class="st0" points="26.7,15.1 26.8,19.1 3.1,19.1 3,15.1 					"/>
				</defs>
				<clipPath id="SVGID_2_">
					<use xlink:href="#SVGID_1_"  style="overflow:visible;"/>
				</clipPath>
				<polygon class="st3" points="26.7,15.1 26.8,19.1 3.1,19.1 3,15.1 				"/>
			</g>
			<g class="st0">
				<defs>
					<polygon id="SVGID_3_" class="st0" points="28.9,12.9 29,16.9 5.3,16.9 5.2,12.9 					"/>
				</defs>
				<clipPath id="SVGID_4_">
					<use xlink:href="#SVGID_3_"  style="overflow:visible;"/>
				</clipPath>
				<polygon class="st4" points="28.9,12.9 29,16.9 5.3,16.9 5.2,12.9 				"/>
			</g>
			<g class="st0">
				<defs>
					<polygon id="SVGID_5_" class="st0" points="28.9,12.9 29,16.9 26.8,19.1 26.7,15.1 					"/>
				</defs>
				<clipPath id="SVGID_6_">
					<use xlink:href="#SVGID_5_"  style="overflow:visible;"/>
				</clipPath>
				<polygon class="st5" points="28.9,12.9 29,16.9 26.8,19.1 26.7,15.1 				"/>
			</g>
			<g class="st0">
				<defs>
					<polygon id="SVGID_7_" class="st0" points="29,16.9 26.8,19.1 3.1,19.1 5.3,16.9 					"/>
				</defs>
				<clipPath id="SVGID_8_">
					<use xlink:href="#SVGID_7_"  style="overflow:visible;"/>
				</clipPath>
				<polygon class="st6" points="29,16.9 26.8,19.1 3.1,19.1 5.3,16.9 				"/>
			</g>
			<g class="st0">
				<defs>
					<polygon id="SVGID_9_" class="st0" points="5.3,16.9 3.1,19.1 3,15.1 5.2,12.9 					"/>
				</defs>
				<clipPath id="SVGID_10_">
					<use xlink:href="#SVGID_9_"  style="overflow:visible;"/>
				</clipPath>
				<polygon class="st7" points="5.3,16.9 3.1,19.1 3,15.1 5.2,12.9 				"/>
			</g>
			<g class="st0">
				<defs>
					<polygon id="SVGID_11_" class="st0" points="5.2,12.9 28.9,12.9 26.7,15.1 3,15.1 					"/>
				</defs>
				<clipPath id="SVGID_12_">
					<use xlink:href="#SVGID_11_"  style="overflow:visible;"/>
				</clipPath>
				<polygon class="st8" points="5.2,12.9 28.9,12.9 26.7,15.1 3,15.1 				"/>
			</g>
			<g class="st0">
				<defs>
					<polygon id="SVGID_13_" class="st0" points="26.6,7.2 26.7,11.2 2.9,11.2 2.8,7.2 					"/>
				</defs>
				<clipPath id="SVGID_14_">
					<use xlink:href="#SVGID_13_"  style="overflow:visible;"/>
				</clipPath>
				<polygon class="st9" points="26.6,7.2 26.7,11.2 2.9,11.2 2.8,7.2 				"/>
			</g>
			<g class="st0">
				<defs>
					<polygon id="SVGID_15_" class="st0" points="28.8,5 28.9,8.9 5.1,8.9 5,5 					"/>
				</defs>
				<clipPath id="SVGID_16_">
					<use xlink:href="#SVGID_15_"  style="overflow:visible;"/>
				</clipPath>
				<polygon class="st10" points="28.8,5 28.9,8.9 5.1,8.9 5,5 				"/>
			</g>
			<g class="st0">
				<defs>
					<polygon id="SVGID_17_" class="st0" points="28.8,5 28.9,8.9 26.7,11.2 26.6,7.2 					"/>
				</defs>
				<clipPath id="SVGID_18_">
					<use xlink:href="#SVGID_17_"  style="overflow:visible;"/>
				</clipPath>
				<polygon class="st11" points="28.8,5 28.9,8.9 26.7,11.2 26.6,7.2 				"/>
			</g>
			<g class="st0">
				<defs>
					<polygon id="SVGID_19_" class="st0" points="28.9,8.9 26.7,11.2 2.9,11.2 5.1,8.9 					"/>
				</defs>
				<clipPath id="SVGID_20_">
					<use xlink:href="#SVGID_19_"  style="overflow:visible;"/>
				</clipPath>
				<polygon class="st12" points="28.9,8.9 26.7,11.2 2.9,11.2 5.1,8.9 				"/>
			</g>
			<g class="st0">
				<defs>
					<polygon id="SVGID_21_" class="st0" points="5.1,8.9 2.9,11.2 2.8,7.2 5,5 					"/>
				</defs>
				<clipPath id="SVGID_22_">
					<use xlink:href="#SVGID_21_"  style="overflow:visible;"/>
				</clipPath>
				<polygon class="st13" points="5.1,8.9 2.9,11.2 2.8,7.2 5,5 				"/>
			</g>
			<g class="st0">
				<defs>
					<polygon id="SVGID_23_" class="st0" points="5,5 28.8,5 26.6,7.2 2.8,7.2 					"/>
				</defs>
				<clipPath id="SVGID_24_">
					<use xlink:href="#SVGID_23_"  style="overflow:visible;"/>
				</clipPath>
				<polygon class="st14" points="5,5 28.8,5 26.6,7.2 2.8,7.2 				"/>
			</g>
			<g class="st0">
				<defs>
					<polygon id="SVGID_25_" class="st0" points="26.9,23.1 27,27 3.2,27 3.1,23.1 					"/>
				</defs>
				<clipPath id="SVGID_26_">
					<use xlink:href="#SVGID_25_"  style="overflow:visible;"/>
				</clipPath>
				<polygon class="st15" points="26.9,23.1 27,27 3.2,27 3.1,23.1 				"/>
			</g>
			<g class="st0">
				<defs>
					<polygon id="SVGID_27_" class="st0" points="29.1,20.8 29.2,24.8 5.4,24.8 5.3,20.8 					"/>
				</defs>
				<clipPath id="SVGID_28_">
					<use xlink:href="#SVGID_27_"  style="overflow:visible;"/>
				</clipPath>
				<polygon class="st16" points="29.1,20.8 29.2,24.8 5.4,24.8 5.3,20.8 				"/>
			</g>
			<g class="st0">
				<defs>
					<polygon id="SVGID_29_" class="st0" points="29.1,20.8 29.2,24.8 27,27 26.9,23.1 					"/>
				</defs>
				<clipPath id="SVGID_30_">
					<use xlink:href="#SVGID_29_"  style="overflow:visible;"/>
				</clipPath>
				<polygon class="st17" points="29.1,20.8 29.2,24.8 27,27 26.9,23.1 				"/>
			</g>
			<g class="st0">
				<defs>
					<polygon id="SVGID_31_" class="st0" points="29.2,24.8 27,27 3.2,27 5.4,24.8 					"/>
				</defs>
				<clipPath id="SVGID_32_">
					<use xlink:href="#SVGID_31_"  style="overflow:visible;"/>
				</clipPath>
				<polygon class="st18" points="29.2,24.8 27,27 3.2,27 5.4,24.8 				"/>
			</g>
			<g class="st0">
				<defs>
					<polygon id="SVGID_33_" class="st0" points="5.4,24.8 3.2,27 3.1,23.1 5.3,20.8 					"/>
				</defs>
				<clipPath id="SVGID_34_">
					<use xlink:href="#SVGID_33_"  style="overflow:visible;"/>
				</clipPath>
				<polygon class="st19" points="5.4,24.8 3.2,27 3.1,23.1 5.3,20.8 				"/>
			</g>
			<g class="st0">
				<defs>
					<polygon id="SVGID_35_" class="st0" points="5.3,20.8 29.1,20.8 26.9,23.1 3.1,23.1 					"/>
				</defs>
				<clipPath id="SVGID_36_">
					<use xlink:href="#SVGID_35_"  style="overflow:visible;"/>
				</clipPath>
				<polygon class="st20" points="5.3,20.8 29.1,20.8 26.9,23.1 3.1,23.1 				"/>
			</g>
		</g>
	</g>
</g>
</svg>
