<?xml version="1.0" encoding="utf-8"?>
<svg viewBox="0 0 128 32" xmlns="http://www.w3.org/2000/svg" xmlns:xlink="http://www.w3.org/1999/xlink">
<style type="text/css">
	.st0{enable-background:new    ;}
	.st1{fill:#09596F;}
	.st2{clip-path:url(#SVGID_2_);enable-background:new    ;}
	.st3{fill:#855F07;}
	.st4{fill:#EBA80C;}
	.st5{fill:#11A3CD;}
	.st6{clip-path:url(#SVGID_4_);enable-background:new    ;}
	.st7{fill:#095C73;}
	.st8{clip-path:url(#SVGID_6_);enable-background:new    ;}
	.st9{clip-path:url(#SVGID_8_);enable-background:new    ;}
	.st10{clip-path:url(#SVGID_10_);enable-background:new    ;}
	.st11{clip-path:url(#SVGID_12_);enable-background:new    ;}
	.st12{clip-path:url(#SVGID_14_);enable-background:new    ;}
	.st13{clip-path:url(#SVGID_16_);enable-background:new    ;}
	.st14{clip-path:url(#SVGID_18_);enable-background:new    ;}
	.st15{clip-path:url(#SVGID_20_);enable-background:new    ;}
	.st16{clip-path:url(#SVGID_22_);enable-background:new    ;}
	.st17{fill:#805B07;}
	.st18{clip-path:url(#SVGID_24_);enable-background:new    ;}
	.st19{clip-path:url(#SVGID_26_);enable-background:new    ;}
	.st20{clip-path:url(#SVGID_28_);enable-background:new    ;}
</style>
<g>
	<g>
		<g class="st0">
			<g>
				<polygon class="st1" points="97,5.5 94.8,7.7 92.9,8.1 95.1,5.9 				"/>
			</g>
			<g>
				<polygon class="st1" points="93,6.3 90.8,8.5 90.5,8.1 92.7,5.8 				"/>
			</g>
			<g>
				<polygon class="st1" points="90.9,5.5 88.7,7.7 88.7,6.6 90.9,4.3 				"/>
			</g>
			<g>
				<polygon class="st1" points="92.7,5.8 90.5,8.1 88.7,7.7 90.9,5.5 				"/>
			</g>
			<g>
				<polygon class="st1" points="85.4,5.5 83.2,7.7 81.5,7.9 83.7,5.7 				"/>
			</g>
			<g>
				<polygon class="st1" points="88.2,14.2 86,16.4 90.8,8.5 93,6.3 				"/>
			</g>
			<g>
				<polygon class="st1" points="80.4,5.8 78.1,8 76.3,7.7 78.5,5.5 				"/>
			</g>
			<g>
				<polygon class="st1" points="78.5,5.5 76.3,7.7 76.3,6.6 78.5,4.3 				"/>
			</g>
			<g class="st0">
				<defs>
					<path id="SVGID_1_" class="st0" d="M98.3,24l-2.2,2.2c-0.4,0.4-0.8,0.5-1.3,0.5c-0.5,0-1-0.2-1.4-0.5c-0.4-0.4-0.6-0.8-0.6-1.3
						c0-0.5,0.2-1,0.5-1.3l2.2-2.2c-0.4,0.4-0.5,0.8-0.5,1.3s0.2,1,0.6,1.3c0.4,0.4,0.8,0.5,1.4,0.5C97.5,24.5,98,24.3,98.3,24z"/>
				</defs>
				<clipPath id="SVGID_2_">
					<use xlink:href="#SVGID_1_"  style="overflow:visible;"/>
				</clipPath>
				<g class="st2">
					<path class="st3" d="M98.3,24l-2.2,2.2c-0.4,0.4-0.8,0.5-1.3,0.5c-0.5,0-1-0.2-1.4-0.5c-0.4-0.4-0.6-0.8-0.6-1.3
						c0-0.5,0.2-1,0.5-1.3l2.2-2.2c-0.4,0.4-0.5,0.8-0.5,1.3s0.2,1,0.6,1.3c0.4,0.4,0.8,0.5,1.4,0.5C97.5,24.5,98,24.3,98.3,24"/>
				</g>
			</g>
			<g>
				<path class="st4" d="M96.9,20.7c0.5,0,1,0.2,1.3,0.6c0.4,0.4,0.6,0.8,0.6,1.4c0,0.5-0.2,1-0.5,1.3c-0.4,0.4-0.8,0.5-1.3,0.5
					c-0.5,0-1-0.2-1.4-0.5c-0.4-0.4-0.6-0.8-0.6-1.3s0.2-1,0.5-1.3C96,20.9,96.4,20.7,96.9,20.7z"/>
			</g>
			<g>
				<polygon class="st1" points="86.5,16.2 84.3,18.4 78.1,8 80.4,5.8 				"/>
			</g>
			<g>
				<polygon class="st1" points="86.6,22.5 84.4,24.7 84.3,18.4 86.5,16.2 				"/>
			</g>
			<g>
				<polygon class="st1" points="84.1,24.3 81.9,26.5 81.9,25.3 84.1,23 				"/>
			</g>
			<g>
				<polygon class="st1" points="91.8,24.3 89.6,26.5 81.9,26.5 84.1,24.3 				"/>
			</g>
			<g>
				<polygon class="st5" points="96.9,4.3 97,5.5 95.1,5.9 89.2,15.8 89.3,22.5 89.8,22.9 91.8,23 91.8,24.3 84.1,24.3 84.1,23 
					86.1,22.9 86.6,22.5 86.5,16.2 80.4,5.8 78.5,5.5 78.5,4.3 85.4,4.3 85.4,5.5 83.7,5.7 83.5,6 88.2,14.2 93,6.3 92.7,5.8 
					90.9,5.5 90.9,4.3 				"/>
			</g>
		</g>
		<g class="st0">
			<g>
				<polygon class="st1" points="75.9,6.1 73.7,8.4 73.3,7.9 75.5,5.7 				"/>
			</g>
			<g>
				<polygon class="st1" points="78,9 75.8,11.2 74.2,11.2 76.4,9 				"/>
			</g>
			<g>
				<polygon class="st1" points="76.4,9 74.2,11.2 73.7,8.4 75.9,6.1 				"/>
			</g>
			<g>
				<polygon class="st1" points="75.5,5.7 73.3,7.9 66.6,7.9 68.8,5.7 				"/>
			</g>
			<g>
				<polygon class="st1" points="74.3,13.1 72.1,15.3 72.3,13.1 74.5,10.9 				"/>
			</g>
			<g>
				<polygon class="st1" points="73.8,13.5 71.6,15.7 72.1,15.3 74.3,13.1 				"/>
			</g>
			<g>
				<polygon class="st1" points="66.2,6.1 64,8.3 63.4,7.9 65.6,5.7 				"/>
			</g>
			<g>
				<polygon class="st1" points="74.3,15.3 72.1,17.6 71.7,17.1 73.9,14.9 				"/>
			</g>
			<g>
				<polygon class="st1" points="63.7,5.5 61.5,7.7 61.5,6.6 63.7,4.3 				"/>
			</g>
			<g>
				<polygon class="st1" points="65.6,5.7 63.4,7.9 61.5,7.7 63.7,5.5 				"/>
			</g>
			<g>
				<polygon class="st1" points="74.6,17.5 72.4,19.7 72.1,17.6 74.3,15.3 				"/>
			</g>
			<g>
				<polygon class="st1" points="76,17.5 73.8,19.7 72.4,19.7 74.6,17.5 				"/>
			</g>
			<g>
				<polygon class="st1" points="73.9,14.9 71.7,17.1 66.8,17.1 69,14.9 				"/>
			</g>
			<g>
				<polygon class="st1" points="66.5,22.5 64.3,24.7 64,8.3 66.2,6.1 				"/>
			</g>
			<g>
				<polygon class="st1" points="64.3,24.3 62.1,26.5 62.1,25.3 64.3,23 				"/>
			</g>
			<g>
				<polygon class="st1" points="71.8,24.3 69.6,26.5 62.1,26.5 64.3,24.3 				"/>
			</g>
			<g>
				<polygon class="st5" points="77.9,4.3 78,9 76.4,9 75.9,6.1 75.5,5.7 68.8,5.7 69,13.5 73.8,13.5 74.3,13.1 74.5,10.9 
					75.9,10.9 76,17.5 74.6,17.5 74.3,15.3 73.9,14.9 69,14.9 69.1,22.5 69.7,22.9 71.8,23 71.8,24.3 64.3,24.3 64.3,23 66,22.9 
					66.5,22.5 66.2,6.1 65.6,5.7 63.7,5.5 63.7,4.3 				"/>
			</g>
		</g>
		<g class="st0">
			<g>
				<polygon class="st1" points="60,6.1 57.7,8.4 57.3,7.9 59.5,5.7 				"/>
			</g>
			<g>
				<polygon class="st1" points="62.1,9 59.9,11.2 58.2,11.2 60.5,9 				"/>
			</g>
			<g>
				<polygon class="st1" points="60.5,9 58.2,11.2 57.7,8.4 60,6.1 				"/>
			</g>
			<g>
				<polygon class="st1" points="59.5,5.7 57.3,7.9 50.7,7.9 52.9,5.7 				"/>
			</g>
			<g>
				<polygon class="st1" points="58.3,13.1 56.1,15.3 56.3,13.1 58.5,10.9 				"/>
			</g>
			<g>
				<polygon class="st1" points="50.2,6.1 48,8.3 47.5,7.9 49.7,5.7 				"/>
			</g>
			<g>
				<polygon class="st1" points="58.3,15.3 56.1,17.6 55.7,17.1 57.9,14.9 				"/>
			</g>
			<g>
				<polygon class="st1" points="47.8,5.5 45.5,7.7 45.5,6.6 47.7,4.3 				"/>
			</g>
			<g>
				<polygon class="st1" points="49.7,5.7 47.5,7.9 45.5,7.7 47.8,5.5 				"/>
			</g>
			<g>
				<polygon class="st1" points="58.7,17.5 56.5,19.7 56.1,17.6 58.3,15.3 				"/>
			</g>
			<g>
				<polygon class="st1" points="60.1,17.5 57.9,19.7 56.5,19.7 58.7,17.5 				"/>
			</g>
			<g>
				<polygon class="st1" points="57.9,14.9 55.7,17.1 50.8,17.1 53,14.9 				"/>
			</g>
			<g>
				<polygon class="st1" points="50.5,22.5 48.3,24.7 48,8.3 50.2,6.1 				"/>
			</g>
			<g>
				<polygon class="st1" points="48.4,24.3 46.2,26.5 46.1,25.3 48.3,23 				"/>
			</g>
			<g>
				<polygon class="st5" points="62,4.3 62.1,9 60.5,9 60,6.1 59.5,5.7 52.9,5.7 53,13.5 57.9,13.5 58.3,13.1 58.5,10.9 60,10.9 
					60.1,17.5 58.7,17.5 58.3,15.3 57.9,14.9 53,14.9 53.2,22.5 53.7,22.9 55.8,23 55.8,24.3 48.4,24.3 48.3,23 50,22.9 50.5,22.5 
					50.2,6.1 49.7,5.7 47.8,5.5 47.7,4.3 				"/>
			</g>
			<g>
				<polygon class="st1" points="55.8,24.3 53.6,26.5 46.2,26.5 48.4,24.3 				"/>
			</g>
		</g>
		<g class="st0">
			<g>
				<polygon class="st1" points="46,5.5 43.8,7.7 41.9,7.9 44.1,5.7 				"/>
			</g>
			<g>
				<polygon class="st1" points="44.1,5.7 41.9,7.9 41.4,8.3 43.6,6.1 				"/>
			</g>
			<g>
				<polygon class="st1" points="40.8,6.1 38.6,8.3 38.1,7.9 40.3,5.7 				"/>
			</g>
			<g>
				<polygon class="st1" points="40.3,5.7 38.1,7.9 36.2,7.7 38.4,5.5 				"/>
			</g>
			<g>
				<polygon class="st1" points="38.4,5.5 36.2,7.7 36.2,6.6 38.4,4.3 				"/>
			</g>
			<g>
				<polygon class="st1" points="41.2,22.5 39,24.7 38.6,8.3 40.8,6.1 				"/>
			</g>
			<g>
				<polygon class="st1" points="38.8,24.3 36.6,26.5 36.6,25.3 38.8,23 				"/>
			</g>
			<g>
				<polygon class="st1" points="46.3,24.3 44.1,26.5 36.6,26.5 38.8,24.3 				"/>
			</g>
			<g>
				<polygon class="st5" points="45.9,4.3 46,5.5 44.1,5.7 43.6,6.1 43.9,22.5 44.4,22.9 46.3,23 46.3,24.3 38.8,24.3 38.8,23 
					40.7,22.9 41.2,22.5 40.8,6.1 40.3,5.7 38.4,5.5 38.4,4.3 				"/>
			</g>
		</g>
		<g class="st0">
			<g class="st0">
				<defs>
					<path id="SVGID_3_" class="st0" d="M27.3,5.7l-2.2,2.2c-0.2,0-0.4,0-0.6,0l2.2-2.2C26.8,5.7,27,5.7,27.3,5.7z"/>
				</defs>
				<clipPath id="SVGID_4_">
					<use xlink:href="#SVGID_3_"  style="overflow:visible;"/>
				</clipPath>
				<g class="st6">
					<path class="st7" d="M27.3,5.7l-2.2,2.2c-0.2,0-0.4,0-0.6,0l2.2-2.2C26.8,5.7,27,5.7,27.3,5.7"/>
				</g>
			</g>
			<g class="st0">
				<defs>
					<path id="SVGID_5_" class="st0" d="M32.7,14.1l-2.2,2.2c0.9-0.9,1.3-2.1,1.3-3.7c0-1.6-0.5-2.7-1.4-3.5
						c-0.9-0.8-2.3-1.1-4.3-1.1c-0.4,0-0.7,0-0.9,0l2.2-2.2c0.2,0,0.5,0,0.9,0c1.9,0,3.3,0.4,4.3,1.1c0.9,0.7,1.4,1.9,1.4,3.5
						C33.9,11.9,33.5,13.2,32.7,14.1z"/>
				</defs>
				<clipPath id="SVGID_6_">
					<use xlink:href="#SVGID_5_"  style="overflow:visible;"/>
				</clipPath>
				<g class="st8">
					<path class="st7" d="M32.7,14.1l-2.2,2.2c0.9-0.9,1.3-2.1,1.3-3.7c0-1.6-0.5-2.7-1.4-3.5c-0.9-0.8-2.3-1.1-4.3-1.1
						c-0.4,0-0.7,0-0.9,0l2.2-2.2c0.2,0,0.5,0,0.9,0c1.9,0,3.3,0.4,4.3,1.1c0.9,0.7,1.4,1.9,1.4,3.5C33.9,11.9,33.5,13.2,32.7,14.1"
						/>
				</g>
			</g>
			<g>
				<polygon class="st1" points="24,6.1 21.8,8.3 21.3,7.9 23.5,5.7 				"/>
			</g>
			<g>
				<polygon class="st1" points="23.5,5.7 21.3,7.9 19.3,7.7 21.5,5.5 				"/>
			</g>
			<g>
				<polygon class="st1" points="21.5,5.5 19.3,7.7 19.3,6.6 21.5,4.3 				"/>
			</g>
			<g class="st0">
				<defs>
					<path id="SVGID_7_" class="st0" d="M35.1,14.7l-2.2,2.2c-0.1,0.1-0.3,0.2-0.4,0.4c-1.4,1.2-3.2,1.7-5.6,1.7c-0.2,0-0.5,0-0.9,0
						l2.2-2.2c0.3,0,0.6,0,0.9,0c2.4,0,4.2-0.6,5.6-1.7C34.8,14.9,34.9,14.8,35.1,14.7z"/>
				</defs>
				<clipPath id="SVGID_8_">
					<use xlink:href="#SVGID_7_"  style="overflow:visible;"/>
				</clipPath>
				<g class="st9">
					<path class="st7" d="M35.1,14.7l-2.2,2.2c-0.1,0.1-0.3,0.2-0.4,0.4c-1.4,1.2-3.2,1.7-5.6,1.7c-0.2,0-0.5,0-0.9,0l2.2-2.2
						c0.3,0,0.6,0,0.9,0c2.4,0,4.2-0.6,5.6-1.7C34.8,14.9,34.9,14.8,35.1,14.7"/>
				</g>
			</g>
			<g class="st0">
				<defs>
					<path id="SVGID_9_" class="st0" d="M28.2,16.7L26,19c-0.3,0-0.8-0.1-1.3-0.1l2.2-2.2C27.4,16.7,27.9,16.7,28.2,16.7z"/>
				</defs>
				<clipPath id="SVGID_10_">
					<use xlink:href="#SVGID_9_"  style="overflow:visible;"/>
				</clipPath>
				<g class="st10">
					<path class="st7" d="M28.2,16.7L26,19c-0.3,0-0.8-0.1-1.3-0.1l2.2-2.2C27.4,16.7,27.9,16.7,28.2,16.7"/>
				</g>
			</g>
			<g>
				<polygon class="st1" points="24.3,22.5 22.1,24.7 21.8,8.3 24,6.1 				"/>
			</g>
			<g>
				<path class="st5" d="M34.7,5.7c1.3,0.9,1.9,2.5,2,4.7c0,1.9-0.6,3.5-2,4.6c-1.4,1.2-3.2,1.7-5.6,1.7c-0.2,0-0.5,0-0.9,0
					c-0.3,0-0.8-0.1-1.3-0.1l0.1,5.8l0.5,0.4l2.1,0.2l0,1.2h-7.5l0-1.2l1.7-0.2l0.5-0.4L24,6.1l-0.5-0.4l-1.9-0.2l0-1.2h6.8
					C31.3,4.3,33.4,4.8,34.7,5.7z M32.7,14.1c0.9-0.9,1.3-2.1,1.3-3.7c0-1.6-0.5-2.7-1.4-3.5c-0.9-0.8-2.3-1.1-4.3-1.1
					c-0.4,0-0.7,0-0.9,0c-0.2,0-0.4,0-0.6,0l0.2,9.4c0.5,0.1,1,0.1,1.3,0.1c0.3,0,0.5,0,0.7,0C30.5,15.4,31.8,14.9,32.7,14.1"/>
			</g>
			<g>
				<polygon class="st1" points="22.2,24.3 19.9,26.5 19.9,25.3 22.1,23 				"/>
			</g>
			<g>
				<polygon class="st1" points="29.6,24.3 27.4,26.5 19.9,26.5 22.2,24.3 				"/>
			</g>
		</g>
		<g class="st0">
			<g>
				<polygon class="st1" points="16.3,6.6 14.1,8.8 13.7,8.3 15.9,6.1 				"/>
			</g>
			<g>
				<polygon class="st1" points="18.4,9.4 16.2,11.6 14.6,11.6 16.8,9.4 				"/>
			</g>
			<g>
				<polygon class="st1" points="16.8,9.4 14.6,11.6 14.1,8.8 16.3,6.6 				"/>
			</g>
			<g class="st0">
				<defs>
					<path id="SVGID_11_" class="st0" d="M7.9,8.8l2.2-2.2c0,0,0.1-0.1,0.1-0.1c0.7-0.6,1.7-1,2.9-1c0.5,0,1,0.1,1.5,0.2
						c0.4,0.1,0.9,0.3,1.2,0.5l-2.2,2.2c-0.4-0.2-0.8-0.4-1.2-0.5C12,7.7,11.5,7.7,11,7.7c-1.2,0-2.2,0.3-2.9,1C8,8.7,8,8.7,7.9,8.8
						z"/>
				</defs>
				<clipPath id="SVGID_12_">
					<use xlink:href="#SVGID_11_"  style="overflow:visible;"/>
				</clipPath>
				<g class="st11">
					<path class="st7" d="M15.9,6.1l-2.2,2.2c-0.4-0.2-0.8-0.4-1.2-0.5C12,7.7,11.5,7.7,11,7.7c-1.2,0-2.2,0.3-2.9,1
						c0,0-0.1,0.1-0.1,0.1l2.2-2.2c0,0,0.1-0.1,0.1-0.1c0.7-0.6,1.7-1,2.9-1c0.5,0,1,0.1,1.5,0.2C15.1,5.7,15.5,5.9,15.9,6.1"/>
				</g>
			</g>
			<g class="st0">
				<defs>
					<path id="SVGID_13_" class="st0" d="M15.8,21.8L13.6,24c0.6-0.6,0.9-1.4,0.9-2.3c0-1.5-1.5-2.9-4.3-4.1
						c-0.3-0.1-0.6-0.2-0.7-0.3c-2-0.9-3.4-1.7-4.1-2.5c-0.7-0.8-1-1.7-1-3c0-1.5,0.4-2.8,1.4-3.8l2.2-2.2c-1,1-1.5,2.3-1.4,3.8
						c0,1.2,0.4,2.2,1,3c0.7,0.8,2,1.6,4.1,2.5c0.2,0.1,0.4,0.2,0.7,0.3c2.9,1.2,4.3,2.6,4.3,4.1C16.7,20.4,16.4,21.2,15.8,21.8z"/>
				</defs>
				<clipPath id="SVGID_14_">
					<use xlink:href="#SVGID_13_"  style="overflow:visible;"/>
				</clipPath>
				<g class="st12">
					<path class="st7" d="M15.8,21.8L13.6,24c0.6-0.6,0.9-1.4,0.9-2.3c0-1.5-1.5-2.9-4.3-4.1c-0.3-0.1-0.6-0.2-0.7-0.3
						c-2-0.9-3.4-1.7-4.1-2.5c-0.7-0.8-1-1.7-1-3c0-1.5,0.4-2.8,1.4-3.8l2.2-2.2c-1,1-1.5,2.3-1.4,3.8c0,1.2,0.4,2.2,1,3
						c0.7,0.8,2,1.6,4.1,2.5c0.2,0.1,0.4,0.2,0.7,0.3c2.9,1.2,4.3,2.6,4.3,4.1C16.7,20.4,16.4,21.2,15.8,21.8"/>
				</g>
			</g>
			<g class="st0">
				<defs>
					<path id="SVGID_15_" class="st0" d="M17.9,22.5l-2.2,2.2c-0.2,0.2-0.3,0.3-0.5,0.5c-1.4,1.1-3.2,1.6-5.5,1.6
						c-1,0-2-0.1-2.9-0.2c-0.9-0.2-1.7-0.4-2.4-0.7l2.2-2.2c0.7,0.3,1.5,0.5,2.4,0.7c0.9,0.2,1.9,0.2,2.9,0.2c2.3,0,4.2-0.6,5.5-1.6
						C17.5,22.8,17.7,22.7,17.9,22.5z"/>
				</defs>
				<clipPath id="SVGID_16_">
					<use xlink:href="#SVGID_15_"  style="overflow:visible;"/>
				</clipPath>
				<g class="st13">
					<path class="st7" d="M17.9,22.5l-2.2,2.2c-0.2,0.2-0.3,0.3-0.5,0.5c-1.4,1.1-3.2,1.6-5.5,1.6c-1,0-2-0.1-2.9-0.2
						c-0.9-0.2-1.7-0.4-2.4-0.7l2.2-2.2c0.7,0.3,1.5,0.5,2.4,0.7c0.9,0.2,1.9,0.2,2.9,0.2c2.3,0,4.2-0.6,5.5-1.6
						C17.5,22.8,17.7,22.7,17.9,22.5"/>
				</g>
			</g>
			<g>
				<polygon class="st1" points="6.4,23.7 4.2,25.9 4.1,20.7 6.3,18.4 				"/>
			</g>
			<g>
				<path class="st5" d="M13.2,4C14,4,14.9,4,15.7,4.2c0.8,0.1,1.7,0.3,2.6,0.6l0.1,4.6h-1.6l-0.5-2.8l-0.4-0.5
					c-0.4-0.2-0.8-0.4-1.2-0.5c-0.4-0.1-0.9-0.2-1.5-0.2c-1.2,0-2.2,0.3-2.9,1C9.5,7.1,9.2,7.9,9.2,9c0,0.8,0.3,1.5,0.8,2
					c0.5,0.5,1.7,1.2,3.4,1.9c0.2,0.1,0.4,0.2,0.7,0.3c1.7,0.7,3,1.4,3.8,2.1c0.4,0.4,0.8,0.9,1,1.5c0.2,0.5,0.3,1.1,0.4,1.8
					c0,1.8-0.6,3.2-2,4.3c-1.4,1.1-3.2,1.6-5.5,1.6c-1,0-2-0.1-2.9-0.2c-0.9-0.2-1.7-0.4-2.4-0.7l-0.1-5.2h1.8l0.4,3.4l0.4,0.5
					c0.4,0.2,0.9,0.4,1.5,0.5c0.6,0.1,1.2,0.2,1.8,0.2c1.4,0,2.5-0.3,3.3-1c0.8-0.6,1.2-1.5,1.2-2.6c0-1.5-1.5-2.9-4.3-4.1
					c-0.3-0.1-0.6-0.2-0.7-0.3c-2-0.9-3.4-1.7-4.1-2.5c-0.7-0.8-1-1.7-1-3C6.4,8,7,6.6,8.3,5.5C9.5,4.5,11.1,4,13.2,4z"/>
			</g>
		</g>
		<g class="st0">
			<g class="st0">
				<defs>
					<path id="SVGID_17_" class="st0" d="M112.6,14.2l2.2-2.2c0.6-0.7,1.4-1,2.4-1c1.2,0,2.2,0.6,3,1.7c0.8,1.1,1.2,2.6,1.2,4.5
						c0,1.9-0.3,3.4-1,4.5l-2.2,2.2c0.7-1.1,1.1-2.6,1-4.5c0-1.9-0.4-3.3-1.2-4.5c-0.8-1.1-1.8-1.7-3-1.7
						C114,13.2,113.2,13.5,112.6,14.2z"/>
				</defs>
				<clipPath id="SVGID_18_">
					<use xlink:href="#SVGID_17_"  style="overflow:visible;"/>
				</clipPath>
				<g class="st14">
					<path class="st3" d="M120.4,21.6l-2.2,2.2c0.7-1.1,1.1-2.6,1-4.5c0-1.9-0.4-3.3-1.2-4.5c-0.8-1.1-1.8-1.7-3-1.7
						c-0.9,0-1.7,0.3-2.4,1l2.2-2.2c0.6-0.7,1.4-1,2.4-1c1.2,0,2.2,0.6,3,1.7c0.8,1.1,1.2,2.6,1.2,4.5
						C121.5,19,121.1,20.5,120.4,21.6"/>
				</g>
			</g>
			<g class="st0">
				<defs>
					<path id="SVGID_19_" class="st0" d="M119.8,22.2l-2.2,2.2c0.2-0.2,0.4-0.4,0.5-0.7l2.2-2.2C120.2,21.8,120,22.1,119.8,22.2z"/>
				</defs>
				<clipPath id="SVGID_20_">
					<use xlink:href="#SVGID_19_"  style="overflow:visible;"/>
				</clipPath>
				<g class="st15">
					<path class="st3" d="M119.8,22.2l-2.2,2.2c0.2-0.2,0.4-0.4,0.5-0.7l2.2-2.2C120.2,21.8,120,22.1,119.8,22.2"/>
				</g>
			</g>
			<g>
				<path class="st4" d="M122.2,11.7c1.3,1.4,2,3.2,2,5.3c0,2.2-0.6,4-1.8,5.3c-1.3,1.4-2.9,2.1-4.9,2.1c-2,0-3.7-0.7-5-2.1
					c-1.3-1.4-2-3.2-2-5.4s0.6-4,1.8-5.3c1.3-1.4,2.9-2.1,4.9-2.1S120.8,10.4,122.2,11.7z M120.4,21.6c0.7-1.1,1.1-2.6,1-4.5
					c0-1.9-0.4-3.3-1.2-4.5c-0.8-1.1-1.8-1.7-3-1.7c-1.2,0-2.2,0.6-2.9,1.7c-0.7,1.1-1.1,2.6-1,4.5c0,1.9,0.4,3.4,1.2,4.5
					c0.8,1.1,1.8,1.7,3,1.7C118.7,23.2,119.6,22.7,120.4,21.6"/>
			</g>
			<g class="st0">
				<defs>
					<path id="SVGID_21_" class="st0" d="M122.2,22.6l-2.2,2.2c-1.2,1.3-2.8,1.9-4.7,1.9c-2,0-3.7-0.7-5-2.1c-1.3-1.4-2-3.2-2-5.4
						s0.6-4,1.8-5.3c0.1-0.1,0.1-0.2,0.2-0.2l2.2-2.2c-0.1,0.1-0.1,0.1-0.2,0.2c-1.3,1.4-1.9,3.2-1.8,5.3s0.7,4,2,5.4
						c1.3,1.4,3,2.1,5,2.1C119.3,24.5,120.9,23.9,122.2,22.6z"/>
				</defs>
				<clipPath id="SVGID_22_">
					<use xlink:href="#SVGID_21_"  style="overflow:visible;"/>
				</clipPath>
				<g class="st16">
					<path class="st3" d="M122.2,22.6l-2.2,2.2c-1.2,1.3-2.8,1.9-4.7,1.9c-2,0-3.7-0.7-5-2.1c-1.3-1.4-2-3.2-2-5.4s0.6-4,1.8-5.3
						c0.1-0.1,0.1-0.2,0.2-0.2l2.2-2.2c-0.1,0.1-0.1,0.1-0.2,0.2c-1.3,1.4-1.9,3.2-1.8,5.3s0.7,4,2,5.4c1.3,1.4,3,2.1,5,2.1
						C119.3,24.5,120.9,23.9,122.2,22.6"/>
				</g>
			</g>
		</g>
		<g class="st0">
			<g>
				<polygon class="st17" points="104,11.8 101.8,14 99.7,14 101.9,11.8 				"/>
			</g>
			<g>
				<polygon class="st17" points="101.9,11.8 99.7,14 99.7,13.1 101.9,10.9 				"/>
			</g>
			<g>
				<polygon class="st17" points="104.2,22.6 102,24.8 101.8,14 104,11.8 				"/>
			</g>
			<g>
				<polygon class="st4" points="107.2,23 108.8,23.2 108.8,24.3 102.2,24.3 102.1,23.2 103.7,23 104.2,22.6 104,11.8 101.9,11.8 
					101.9,10.9 105.3,9.8 106.5,9.8 106.7,22.6 				"/>
			</g>
			<g>
				<polygon class="st17" points="108.8,24.3 106.6,26.5 100,26.5 102.2,24.3 				"/>
			</g>
			<g>
				<polygon class="st17" points="102.2,24.3 100,26.5 99.9,25.4 102.1,23.2 				"/>
			</g>
		</g>
		<g class="st0">
			<g class="st0">
				<defs>
					<polygon id="SVGID_23_" class="st0" points="106.6,6.1 104.4,8.4 104.4,8.4 106.6,6.2 					"/>
				</defs>
				<clipPath id="SVGID_24_">
					<use xlink:href="#SVGID_23_"  style="overflow:visible;"/>
				</clipPath>
				<g class="st18">
					<polyline class="st3" points="106.6,6.1 104.4,8.4 104.4,8.4 106.6,6.2 106.6,6.1 					"/>
				</g>
			</g>
			<g class="st0">
				<defs>
					<path id="SVGID_25_" class="st0" d="M106.6,6.2l-2.2,2.2c-0.3,0.3-0.7,0.5-1.2,0.5l2.2-2.2C105.8,6.6,106.2,6.5,106.6,6.2z"/>
				</defs>
				<clipPath id="SVGID_26_">
					<use xlink:href="#SVGID_25_"  style="overflow:visible;"/>
				</clipPath>
				<g class="st19">
					<path class="st3" d="M106.6,6.2l-2.2,2.2c-0.3,0.3-0.7,0.5-1.2,0.5l2.2-2.2C105.8,6.6,106.2,6.5,106.6,6.2"/>
				</g>
			</g>
			<g class="st0">
				<defs>
					<path id="SVGID_27_" class="st0" d="M105.4,6.6l-2.2,2.2c-0.5,0-0.9-0.2-1.2-0.5c-0.3-0.3-0.5-0.7-0.5-1.2
						c0-0.5,0.1-0.9,0.5-1.2l2.2-2.2c-0.3,0.3-0.5,0.7-0.5,1.2c0,0.5,0.2,0.9,0.5,1.2C104.5,6.5,104.9,6.6,105.4,6.6z"/>
				</defs>
				<clipPath id="SVGID_28_">
					<use xlink:href="#SVGID_27_"  style="overflow:visible;"/>
				</clipPath>
				<g class="st20">
					<path class="st3" d="M105.4,6.6l-2.2,2.2c-0.5,0-0.9-0.2-1.2-0.5c-0.3-0.3-0.5-0.7-0.5-1.2c0-0.5,0.1-0.9,0.5-1.2l2.2-2.2
						c-0.3,0.3-0.5,0.7-0.5,1.2c0,0.5,0.2,0.9,0.5,1.2C104.5,6.5,104.9,6.6,105.4,6.6"/>
				</g>
			</g>
			<g>
				<path class="st4" d="M105.4,6.6c-0.5,0-0.9-0.2-1.2-0.5c-0.3-0.3-0.5-0.7-0.5-1.2c0-0.5,0.1-0.9,0.5-1.2
					c0.3-0.3,0.7-0.5,1.2-0.5s0.9,0.2,1.2,0.5c0.3,0.3,0.5,0.7,0.5,1.2s-0.1,0.9-0.5,1.2C106.2,6.5,105.8,6.6,105.4,6.6z"/>
			</g>
		</g>
	</g>
</g>
</svg>
