<?xml version="1.0" encoding="utf-8"?>
<svg viewBox="0 0 32 32" xmlns="http://www.w3.org/2000/svg">
<style type="text/css">
	.st0{fill:none;stroke:#3D3D3D;stroke-width:4;stroke-miterlimit:10;}
	.st1{fill:none;stroke:#3D3D3D;stroke-width:2;stroke-miterlimit:10;}
</style>
<path class="st0" d="M16.7,28L16.7,28C16.2,28,6,27.6,7,27V7C6,6.4,6.4,6,7,6H25c0.5,0,1,0.4-0.1,1V27C26,27.6,17.3,28,16.7,28z"/>
<path class="st0" d="M19,6h-6c-0.5,0-1-0.4-1-1v0c0-0.5,0.4-1,1-1h6c0.5,0,1,0.4,1,1v0C20,5.6,19.6,6,19,6z"/>
<line class="st1" x1="12" y1="10" x2="12" y2="24"/>
<line class="st1" x1="16" y1="10.5" x2="16" y2="24.5"/>
<line class="st1" x1="20" y1="10" x2="20" y2="24"/>
</svg>