<?xml version="1.0" encoding="utf-8"?>
<svg viewBox="0 0 32 32" xmlns="http://www.w3.org/2000/svg" xmlns:xlink="http://www.w3.org/1999/xlink">
<style type="text/css">
	.st0{enable-background:new    ;}
	.st1{clip-path:url(#SVGID_2_);enable-background:new    ;}
	.st2{fill:#095C73;}
	.st3{fill:#09596F;}
	.st4{clip-path:url(#SVGID_4_);enable-background:new    ;}
	.st5{clip-path:url(#SVGID_6_);enable-background:new    ;}
	.st6{clip-path:url(#SVGID_8_);enable-background:new    ;}
	.st7{clip-path:url(#SVGID_10_);enable-background:new    ;}
	.st8{fill:#11A3CD;}
	.st9{clip-path:url(#SVGID_12_);enable-background:new    ;}
	.st10{clip-path:url(#SVGID_14_);fill:none;stroke:#000000;stroke-width:0.25;stroke-miterlimit:10;}
	.st11{clip-path:url(#SVGID_16_);fill:none;stroke:#000000;stroke-width:0.25;stroke-miterlimit:10;}
	.st12{clip-path:url(#SVGID_18_);enable-background:new    ;}
	.st13{fill:none;stroke:#000000;stroke-width:0.25;stroke-miterlimit:10;}
	.st14{clip-path:url(#SVGID_18_);fill:none;stroke:#000000;stroke-width:0.25;stroke-miterlimit:10;}
	.st15{clip-path:url(#SVGID_20_);fill:none;stroke:#000000;stroke-width:0.25;stroke-miterlimit:10;}
	.st16{clip-path:url(#SVGID_22_);enable-background:new    ;}
	.st17{clip-path:url(#SVGID_22_);fill:none;stroke:#000000;stroke-width:0.25;stroke-miterlimit:10;}
	.st18{clip-path:url(#SVGID_24_);enable-background:new    ;}
	.st19{clip-path:url(#SVGID_24_);fill:none;stroke:#000000;stroke-width:0.25;stroke-miterlimit:10;}
	.st20{clip-path:url(#SVGID_26_);fill:none;stroke:#000000;stroke-width:0.25;stroke-miterlimit:10;}
	.st21{clip-path:url(#SVGID_28_);fill:none;stroke:#000000;stroke-width:0.25;stroke-miterlimit:10;}
	.st22{clip-path:url(#SVGID_30_);fill:none;stroke:#000000;stroke-width:0.25;stroke-miterlimit:10;}
	.st23{clip-path:url(#SVGID_32_);enable-background:new    ;}
	.st24{clip-path:url(#SVGID_32_);fill:none;stroke:#000000;stroke-width:0.25;stroke-miterlimit:10;}
	.st25{clip-path:url(#SVGID_34_);enable-background:new    ;}
	.st26{clip-path:url(#SVGID_34_);fill:none;stroke:#000000;stroke-width:0.25;stroke-miterlimit:10;}
	.st27{clip-path:url(#SVGID_36_);fill:none;stroke:#000000;stroke-width:0.25;stroke-miterlimit:10;}
	.st28{clip-path:url(#SVGID_38_);enable-background:new    ;}
	.st29{clip-path:url(#SVGID_38_);fill:none;stroke:#000000;stroke-width:0.25;stroke-miterlimit:10;}
	.st30{clip-path:url(#SVGID_40_);fill:none;stroke:#000000;stroke-width:0.25;stroke-miterlimit:10;}
	.st31{clip-path:url(#SVGID_42_);enable-background:new    ;}
	.st32{clip-path:url(#SVGID_42_);fill:none;stroke:#000000;stroke-width:0.25;stroke-miterlimit:10;}
	.st33{clip-path:url(#SVGID_44_);enable-background:new    ;}
	.st34{clip-path:url(#SVGID_44_);fill:none;stroke:#000000;stroke-width:0.25;stroke-miterlimit:10;}
	.st35{clip-path:url(#SVGID_46_);fill:none;stroke:#000000;stroke-width:0.25;stroke-miterlimit:10;}
	.st36{clip-path:url(#SVGID_48_);enable-background:new    ;}
	.st37{clip-path:url(#SVGID_48_);fill:none;stroke:#000000;stroke-width:0.25;stroke-miterlimit:10;}
	.st38{clip-path:url(#SVGID_50_);fill:none;stroke:#000000;stroke-width:0.25;stroke-miterlimit:10;}
	.st39{clip-path:url(#SVGID_52_);fill:none;stroke:#000000;stroke-width:0.25;stroke-miterlimit:10;}
	.st40{clip-path:url(#SVGID_54_);fill:none;stroke:#000000;stroke-width:0.25;stroke-miterlimit:10;}
	.st41{clip-path:url(#SVGID_56_);enable-background:new    ;}
	.st42{clip-path:url(#SVGID_56_);fill:none;stroke:#000000;stroke-width:0.25;stroke-miterlimit:10;}
	.st43{clip-path:url(#SVGID_58_);fill:none;stroke:#000000;stroke-width:0.25;stroke-miterlimit:10;}
	.st44{clip-path:url(#SVGID_60_);enable-background:new    ;}
	.st45{clip-path:url(#SVGID_60_);fill:none;stroke:#000000;stroke-width:0.25;stroke-miterlimit:10;}
	.st46{clip-path:url(#SVGID_62_);enable-background:new    ;}
	.st47{clip-path:url(#SVGID_62_);fill:none;stroke:#000000;stroke-width:0.25;stroke-miterlimit:10;}
	.st48{clip-path:url(#SVGID_64_);fill:none;stroke:#000000;stroke-width:0.25;stroke-miterlimit:10;}
	.st49{clip-path:url(#SVGID_66_);fill:none;stroke:#000000;stroke-width:0.25;stroke-miterlimit:10;}
	.st50{clip-path:url(#SVGID_68_);fill:none;stroke:#000000;stroke-width:0.25;stroke-miterlimit:10;}
	.st51{clip-path:url(#SVGID_70_);fill:none;stroke:#000000;stroke-width:0.25;stroke-miterlimit:10;}
	.st52{clip-path:url(#SVGID_72_);fill:none;stroke:#000000;stroke-width:0.25;stroke-miterlimit:10;}
	.st53{clip-path:url(#SVGID_74_);fill:none;stroke:#000000;stroke-width:0.25;stroke-miterlimit:10;}
	.st54{clip-path:url(#SVGID_76_);fill:none;stroke:#000000;stroke-width:0.25;stroke-miterlimit:10;}
	.st55{clip-path:url(#SVGID_78_);fill:none;stroke:#000000;stroke-width:0.25;stroke-miterlimit:10;}
	.st56{clip-path:url(#SVGID_80_);fill:none;stroke:#000000;stroke-width:0.25;stroke-miterlimit:10;}
	.st57{clip-path:url(#SVGID_82_);fill:none;stroke:#000000;stroke-width:0.25;stroke-miterlimit:10;}
	.st58{clip-path:url(#SVGID_84_);fill:none;stroke:#000000;stroke-width:0.25;stroke-miterlimit:10;}
	.st59{clip-path:url(#SVGID_86_);fill:none;stroke:#000000;stroke-width:0.25;stroke-miterlimit:10;}
	.st60{clip-path:url(#SVGID_88_);fill:none;stroke:#000000;stroke-width:0.25;stroke-miterlimit:10;}
	.st61{clip-path:url(#SVGID_90_);fill:none;stroke:#000000;stroke-width:0.25;stroke-miterlimit:10;}
	.st62{clip-path:url(#SVGID_92_);fill:none;stroke:#000000;stroke-width:0.25;stroke-miterlimit:10;}
	.st63{clip-path:url(#SVGID_94_);fill:none;stroke:#000000;stroke-width:0.25;stroke-miterlimit:10;}
	.st64{clip-path:url(#SVGID_96_);fill:none;stroke:#000000;stroke-width:0.25;stroke-miterlimit:10;}
	.st65{clip-path:url(#SVGID_98_);fill:none;stroke:#000000;stroke-width:0.25;stroke-miterlimit:10;}
</style>
<g>
	<g>
		<g class="st0">
			<g class="st0">
				<defs>
					<path id="SVGID_1_" class="st0" d="M27.9,8.1l-2.2,2.2c0-2.3-1.9-4.1-4.2-4.1L23.7,4C25.9,4,27.8,5.8,27.9,8.1z"/>
				</defs>
				<clipPath id="SVGID_2_">
					<use xlink:href="#SVGID_1_"  style="overflow:visible;"/>
				</clipPath>
				<g class="st1">
					<path class="st2" d="M27.9,8.1l-2.2,2.2c0-2.3-1.9-4.1-4.2-4.1L23.7,4C25.9,4,27.8,5.8,27.9,8.1"/>
				</g>
			</g>
			<g>
				<polygon class="st3" points="28,17.7 25.8,20 25.6,10.3 27.9,8.1 				"/>
			</g>
			<g>
				<polygon class="st3" points="23.7,4 21.5,6.2 7.9,6.2 10.1,4 				"/>
			</g>
			<g class="st0">
				<defs>
					<path id="SVGID_3_" class="st0" d="M26.9,20.6l-2.2,2.2c0.7-0.7,1.2-1.8,1.2-2.9l2.2-2.2C28.1,18.9,27.6,19.9,26.9,20.6z"/>
				</defs>
				<clipPath id="SVGID_4_">
					<use xlink:href="#SVGID_3_"  style="overflow:visible;"/>
				</clipPath>
				<g class="st4">
					<path class="st2" d="M26.9,20.6l-2.2,2.2c0.7-0.7,1.2-1.8,1.2-2.9l2.2-2.2C28.1,18.9,27.6,19.9,26.9,20.6"/>
				</g>
			</g>
			<g>
				<polygon class="st3" points="25,14.9 22.8,17.1 17.9,17.1 20.1,14.9 				"/>
			</g>
			<g class="st0">
				<defs>
					<path id="SVGID_5_" class="st0" d="M5,7.4l2.2-2.2C8,4.5,9,4,10.1,4L7.9,6.2C6.8,6.2,5.8,6.7,5,7.4z"/>
				</defs>
				<clipPath id="SVGID_6_">
					<use xlink:href="#SVGID_5_"  style="overflow:visible;"/>
				</clipPath>
				<g class="st5">
					<path class="st2" d="M10.1,4L7.9,6.2C6.8,6.2,5.8,6.7,5,7.4l2.2-2.2C8,4.5,9,4,10.1,4"/>
				</g>
			</g>
			<g class="st0">
				<defs>
					<path id="SVGID_7_" class="st0" d="M28.3,22l-2.2,2.2C25,25.4,23.5,26,21.9,26l2.2-2.2C25.7,23.8,27.2,23.1,28.3,22z"/>
				</defs>
				<clipPath id="SVGID_8_">
					<use xlink:href="#SVGID_7_"  style="overflow:visible;"/>
				</clipPath>
				<g class="st6">
					<path class="st2" d="M28.3,22l-2.2,2.2C25,25.4,23.5,26,21.9,26l2.2-2.2C25.7,23.8,27.2,23.1,28.3,22"/>
				</g>
			</g>
			<g>
				<polygon class="st3" points="20.1,14.9 17.9,17.1 11.9,17.1 14.1,14.9 				"/>
			</g>
			<g>
				<polygon class="st3" points="20.2,23.8 18,26 18,24.1 20.2,21.8 				"/>
			</g>
			<g>
				<polygon class="st3" points="24.1,23.8 21.9,26 18,26 20.2,23.8 				"/>
			</g>
			<g class="st0">
				<defs>
					<path id="SVGID_9_" class="st0" d="M3.6,6l2.2-2.2C4.7,4.9,4.1,6.4,4.1,8.1l-2.2,2.2C1.8,8.6,2.5,7.1,3.6,6z"/>
				</defs>
				<clipPath id="SVGID_10_">
					<use xlink:href="#SVGID_9_"  style="overflow:visible;"/>
				</clipPath>
				<g class="st7">
					<path class="st2" d="M4.1,8.1l-2.2,2.2c0-1.7,0.6-3.2,1.7-4.3l2.2-2.2C4.7,4.9,4.1,6.4,4.1,8.1"/>
				</g>
			</g>
			<g>
				<polygon class="st3" points="9.2,14.9 7,17.1 14.7,9.2 16.9,7 				"/>
			</g>
			<g>
				<polygon class="st3" points="14.1,14.9 11.9,17.1 7,17.1 9.2,14.9 				"/>
			</g>
			<g>
				<polygon class="st8" points="16.9,7 25,14.9 20.1,14.9 14.1,14.9 9.2,14.9 				"/>
			</g>
			<g>
				<polygon class="st3" points="14.3,21.8 12,24.1 11.9,17.1 14.1,14.9 				"/>
			</g>
			<g>
				<polygon class="st3" points="14.3,23.8 12.1,26 12,24.1 14.3,21.8 				"/>
			</g>
			<g>
				<polygon class="st3" points="14.3,23.8 12.1,26 8.3,26 10.5,23.8 				"/>
			</g>
			<g>
				<polygon class="st3" points="4.3,17.7 2.1,20 1.9,10.3 4.1,8.1 				"/>
			</g>
			<g>
				<polygon class="st3" points="14.4,28.8 12.2,31 12.1,26 14.3,23.8 				"/>
			</g>
			<g>
				<polygon class="st3" points="20.3,28.8 18.1,31 12.2,31 14.4,28.8 				"/>
			</g>
			<g>
				<polygon class="st8" points="20.1,14.9 20.2,21.8 20.2,23.8 20.3,28.8 14.4,28.8 14.3,23.8 14.3,21.8 14.1,14.9 				"/>
			</g>
			<g>
				<path class="st8" d="M23.6,2c3.4,0,6.1,2.7,6.2,6.1l0.2,9.6c0.1,3.4-2.6,6.1-6,6.1h-3.8l0-2H24c2.3,0,4.1-1.8,4-4.1l-0.2-9.6
					c0-2.3-1.9-4.1-4.2-4.1H10.1C7.8,4,6,5.8,6.1,8.1l0.2,9.6c0,2.3,1.9,4.1,4.2,4.1h3.8l0,2h-3.8c-3.4,0-6.1-2.7-6.2-6.1L4.1,8.1
					C4,4.7,6.7,2,10.1,2L23.6,2z"/>
			</g>
			<g class="st0">
				<defs>
					<path id="SVGID_11_" class="st0" d="M10.5,23.8L8.3,26c-3.4,0-6.1-2.7-6.2-6.1l2.2-2.2C4.3,21.1,7.1,23.8,10.5,23.8z"/>
				</defs>
				<clipPath id="SVGID_12_">
					<use xlink:href="#SVGID_11_"  style="overflow:visible;"/>
				</clipPath>
				<g class="st9">
					<path class="st2" d="M10.5,23.8L8.3,26c-3.4,0-6.1-2.7-6.2-6.1l2.2-2.2C4.3,21.1,7.1,23.8,10.5,23.8"/>
				</g>
			</g>
		</g>
	</g>
</g>
<g>
	<g>
		<g class="st0">
			<g class="st0">
				<defs>
					<path id="SVGID_13_" class="st0" d="M21.4,4.2c3.4,0,6.1,2.7,6.2,6.1l0.2,9.6c0.1,3.4-2.6,6.1-6,6.1H18l0-2h3.8
						c2.3,0,4.1-1.8,4-4.1l-0.2-9.6c0-2.3-1.9-4.1-4.2-4.1H7.9c-2.3,0-4.1,1.8-4,4.1L4.1,20c0,2.3,1.9,4.1,4.2,4.1H12l0,2H8.3
						c-3.4,0-6.1-2.7-6.2-6.1l-0.2-9.6C1.8,7,4.5,4.2,7.8,4.2H21.4z"/>
				</defs>
				<clipPath id="SVGID_14_">
					<use xlink:href="#SVGID_13_"  style="overflow:visible;"/>
				</clipPath>
				<path class="st10" d="M21.4,4.2c3.4,0,6.1,2.7,6.2,6.1l0.2,9.6c0.1,3.4-2.6,6.1-6,6.1H18l0-2h3.8c2.3,0,4.1-1.8,4-4.1l-0.2-9.6
					c0-2.3-1.9-4.1-4.2-4.1H7.9c-2.3,0-4.1,1.8-4,4.1L4.1,20c0,2.3,1.9,4.1,4.2,4.1H12l0,2H8.3c-3.4,0-6.1-2.7-6.2-6.1l-0.2-9.6
					C1.8,7,4.5,4.2,7.8,4.2H21.4z"/>
			</g>
			<g class="st0">
				<defs>
					<path id="SVGID_15_" class="st0" d="M23.6,2c3.4,0,6.1,2.7,6.2,6.1l0.2,9.6c0.1,3.4-2.6,6.1-6,6.1h-3.8l0-2H24
						c2.3,0,4.1-1.8,4-4.1l-0.2-9.6c0-2.3-1.9-4.1-4.2-4.1H10.1C7.8,4,6,5.8,6.1,8.1l0.2,9.6c0,2.3,1.9,4.1,4.2,4.1h3.8l0,2h-3.8
						c-3.4,0-6.1-2.7-6.2-6.1L4.1,8.1C4,4.7,6.7,2,10.1,2L23.6,2z"/>
				</defs>
				<clipPath id="SVGID_16_">
					<use xlink:href="#SVGID_15_"  style="overflow:visible;"/>
				</clipPath>
				<path class="st11" d="M23.6,2c3.4,0,6.1,2.7,6.2,6.1l0.2,9.6c0.1,3.4-2.6,6.1-6,6.1h-3.8l0-2H24c2.3,0,4.1-1.8,4-4.1l-0.2-9.6
					c0-2.3-1.9-4.1-4.2-4.1H10.1C7.8,4,6,5.8,6.1,8.1l0.2,9.6c0,2.3,1.9,4.1,4.2,4.1h3.8l0,2h-3.8c-3.4,0-6.1-2.7-6.2-6.1L4.1,8.1
					C4,4.7,6.7,2,10.1,2L23.6,2z"/>
			</g>
			<g class="st0">
				<defs>
					<path id="SVGID_17_" class="st0" d="M23.6,2c3.4,0,6.1,2.7,6.2,6.1l-2.2,2.2c-0.1-3.4-2.8-6.1-6.2-6.1L23.6,2z"/>
				</defs>
				<clipPath id="SVGID_18_">
					<use xlink:href="#SVGID_17_"  style="overflow:visible;"/>
				</clipPath>
				<g class="st12">
					<g>
						<path class="st13" d="M23.6,2l-2.2,2.2c3.4,0,6.1,2.7,6.2,6.1l2.2-2.2C29.8,4.7,27,2,23.6,2z"/>
						<line class="st13" x1="26.7" y1="2.8" x2="24.5" y2="5.1"/>
						<line class="st13" x1="28.9" y1="5" x2="26.7" y2="7.3"/>
					</g>
				</g>
				<path class="st14" d="M23.6,2c3.4,0,6.1,2.7,6.2,6.1l-2.2,2.2c-0.1-3.4-2.8-6.1-6.2-6.1L23.6,2z"/>
			</g>
			<g class="st0">
				<defs>
					<polygon id="SVGID_19_" class="st0" points="29.8,8.1 30,17.7 27.8,20 27.6,10.3 					"/>
				</defs>
				<clipPath id="SVGID_20_">
					<use xlink:href="#SVGID_19_"  style="overflow:visible;"/>
				</clipPath>
				<polygon class="st15" points="29.8,8.1 30,17.7 27.8,20 27.6,10.3 				"/>
			</g>
			<g class="st0">
				<defs>
					<path id="SVGID_21_" class="st0" d="M28.3,22l-2.2,2.2C25,25.4,23.5,26,21.9,26l2.2-2.2C25.7,23.8,27.2,23.1,28.3,22z"/>
				</defs>
				<clipPath id="SVGID_22_">
					<use xlink:href="#SVGID_21_"  style="overflow:visible;"/>
				</clipPath>
				<g class="st16">
					<g>
						<path class="st13" d="M30,17.7L27.8,20c0.1,3.4-2.6,6.1-6,6.1l2.2-2.2C27.4,23.8,30.1,21.1,30,17.7z"/>
						<line class="st13" x1="27.1" y1="23" x2="24.9" y2="25.2"/>
					</g>
				</g>
				<path class="st17" d="M28.3,22l-2.2,2.2C25,25.4,23.5,26,21.9,26l2.2-2.2C25.7,23.8,27.2,23.1,28.3,22z"/>
			</g>
			<g class="st0">
				<defs>
					<path id="SVGID_23_" class="st0" d="M26.1,24.3c1.1-1.1,1.8-2.6,1.7-4.3l2.2-2.2c0,1.7-0.6,3.2-1.7,4.3
						C27.6,22.7,26.8,23.6,26.1,24.3z"/>
				</defs>
				<clipPath id="SVGID_24_">
					<use xlink:href="#SVGID_23_"  style="overflow:visible;"/>
				</clipPath>
				<g class="st18">
					<g>
						<path class="st13" d="M30,17.7L27.8,20c0.1,3.4-2.6,6.1-6,6.1l2.2-2.2C27.4,23.8,30.1,21.1,30,17.7z"/>
						<line class="st13" x1="29.2" y1="20.8" x2="27" y2="23"/>
					</g>
				</g>
				<path class="st19" d="M26.1,24.3c1.1-1.1,1.8-2.6,1.7-4.3l2.2-2.2c0,1.7-0.6,3.2-1.7,4.3C27.6,22.7,26.8,23.6,26.1,24.3z"/>
			</g>
			<g class="st0">
				<defs>
					<polygon id="SVGID_25_" class="st0" points="24.1,23.8 21.9,26 18,26 20.2,23.8 					"/>
				</defs>
				<clipPath id="SVGID_26_">
					<use xlink:href="#SVGID_25_"  style="overflow:visible;"/>
				</clipPath>
				<polygon class="st20" points="24.1,23.8 21.9,26 18,26 20.2,23.8 				"/>
			</g>
			<g class="st0">
				<defs>
					<polygon id="SVGID_27_" class="st0" points="20.2,23.8 18,26 18,24.1 20.2,21.8 					"/>
				</defs>
				<clipPath id="SVGID_28_">
					<use xlink:href="#SVGID_27_"  style="overflow:visible;"/>
				</clipPath>
				<polygon class="st21" points="20.2,23.8 18,26 18,24.1 20.2,21.8 				"/>
			</g>
			<g class="st0">
				<defs>
					<polygon id="SVGID_29_" class="st0" points="20.2,21.8 24,21.8 21.8,24.1 18,24.1 					"/>
				</defs>
				<clipPath id="SVGID_30_">
					<use xlink:href="#SVGID_29_"  style="overflow:visible;"/>
				</clipPath>
				<polygon class="st22" points="20.2,21.8 24,21.8 21.8,24.1 18,24.1 				"/>
			</g>
			<g class="st0">
				<defs>
					<path id="SVGID_31_" class="st0" d="M26.9,20.6l-2.2,2.2c0.7-0.7,1.2-1.8,1.2-2.9l2.2-2.2C28.1,18.9,27.6,19.9,26.9,20.6z"/>
				</defs>
				<clipPath id="SVGID_32_">
					<use xlink:href="#SVGID_31_"  style="overflow:visible;"/>
				</clipPath>
				<g class="st23">
					<g>
						<path class="st13" d="M24,21.8l-2.2,2.2c2.3,0,4.1-1.8,4-4.1l2.2-2.2C28.1,20,26.3,21.8,24,21.8z"/>
						<line class="st13" x1="27.5" y1="19.8" x2="25.3" y2="22"/>
					</g>
				</g>
				<path class="st24" d="M26.9,20.6l-2.2,2.2c0.7-0.7,1.2-1.8,1.2-2.9l2.2-2.2C28.1,18.9,27.6,19.9,26.9,20.6z"/>
			</g>
			<g class="st0">
				<defs>
					<path id="SVGID_33_" class="st0" d="M24.7,22.9c-0.7,0.7-1.7,1.2-2.9,1.2l2.2-2.2c1.1,0,2.1-0.5,2.9-1.2
						C26.2,21.3,25.3,22.2,24.7,22.9z"/>
				</defs>
				<clipPath id="SVGID_34_">
					<use xlink:href="#SVGID_33_"  style="overflow:visible;"/>
				</clipPath>
				<g class="st25">
					<g>
						<path class="st13" d="M24,21.8l-2.2,2.2c2.3,0,4.1-1.8,4-4.1l2.2-2.2C28.1,20,26.3,21.8,24,21.8z"/>
						<line class="st13" x1="26.1" y1="21.3" x2="23.9" y2="23.5"/>
					</g>
				</g>
				<path class="st26" d="M24.7,22.9c-0.7,0.7-1.7,1.2-2.9,1.2l2.2-2.2c1.1,0,2.1-0.5,2.9-1.2C26.2,21.3,25.3,22.2,24.7,22.9z"/>
			</g>
			<g class="st0">
				<defs>
					<polygon id="SVGID_35_" class="st0" points="28,17.7 25.8,20 25.6,10.3 27.9,8.1 					"/>
				</defs>
				<clipPath id="SVGID_36_">
					<use xlink:href="#SVGID_35_"  style="overflow:visible;"/>
				</clipPath>
				<polygon class="st27" points="28,17.7 25.8,20 25.6,10.3 27.9,8.1 				"/>
			</g>
			<g class="st0">
				<defs>
					<path id="SVGID_37_" class="st0" d="M27.9,8.1l-2.2,2.2c0-2.3-1.9-4.1-4.2-4.1L23.7,4C25.9,4,27.8,5.8,27.9,8.1z"/>
				</defs>
				<clipPath id="SVGID_38_">
					<use xlink:href="#SVGID_37_"  style="overflow:visible;"/>
				</clipPath>
				<g class="st28">
					<g>
						<path class="st13" d="M27.9,8.1l-2.2,2.2c0-2.3-1.9-4.1-4.2-4.1L23.7,4C25.9,4,27.8,5.8,27.9,8.1z"/>
						<line class="st13" x1="27.3" y1="6" x2="25" y2="8.3"/>
						<line class="st13" x1="25.8" y1="4.6" x2="23.5" y2="6.8"/>
					</g>
				</g>
				<path class="st29" d="M27.9,8.1l-2.2,2.2c0-2.3-1.9-4.1-4.2-4.1L23.7,4C25.9,4,27.8,5.8,27.9,8.1z"/>
			</g>
			<g class="st0">
				<defs>
					<polygon id="SVGID_39_" class="st0" points="23.7,4 21.5,6.2 7.9,6.2 10.1,4 					"/>
				</defs>
				<clipPath id="SVGID_40_">
					<use xlink:href="#SVGID_39_"  style="overflow:visible;"/>
				</clipPath>
				<polygon class="st30" points="23.7,4 21.5,6.2 7.9,6.2 10.1,4 				"/>
			</g>
			<g class="st0">
				<defs>
					<path id="SVGID_41_" class="st0" d="M7.2,5.2C6.5,5.9,6,7,6.1,8.1l-2.2,2.2c0-1.1,0.4-2.2,1.2-2.9C5.7,6.7,6.6,5.9,7.2,5.2z"/>
				</defs>
				<clipPath id="SVGID_42_">
					<use xlink:href="#SVGID_41_"  style="overflow:visible;"/>
				</clipPath>
				<g class="st31">
					<g>
						<path class="st13" d="M10.1,4L7.9,6.2c-2.3,0-4.1,1.8-4,4.1l2.2-2.2C6,5.8,7.8,4,10.1,4z"/>
						<line class="st13" x1="6.6" y1="6" x2="4.4" y2="8.3"/>
					</g>
				</g>
				<path class="st32" d="M7.2,5.2C6.5,5.9,6,7,6.1,8.1l-2.2,2.2c0-1.1,0.4-2.2,1.2-2.9C5.7,6.7,6.6,5.9,7.2,5.2z"/>
			</g>
			<g class="st0">
				<defs>
					<path id="SVGID_43_" class="st0" d="M5,7.4l2.2-2.2C8,4.5,9,4,10.1,4L7.9,6.2C6.8,6.2,5.8,6.7,5,7.4z"/>
				</defs>
				<clipPath id="SVGID_44_">
					<use xlink:href="#SVGID_43_"  style="overflow:visible;"/>
				</clipPath>
				<g class="st33">
					<g>
						<path class="st13" d="M10.1,4L7.9,6.2c-2.3,0-4.1,1.8-4,4.1l2.2-2.2C6,5.8,7.8,4,10.1,4z"/>
						<line class="st13" x1="8" y1="4.6" x2="5.8" y2="6.8"/>
					</g>
				</g>
				<path class="st34" d="M5,7.4l2.2-2.2C8,4.5,9,4,10.1,4L7.9,6.2C6.8,6.2,5.8,6.7,5,7.4z"/>
			</g>
			<g class="st0">
				<defs>
					<polygon id="SVGID_45_" class="st0" points="6.1,8.1 6.3,17.7 4.1,20 3.9,10.3 					"/>
				</defs>
				<clipPath id="SVGID_46_">
					<use xlink:href="#SVGID_45_"  style="overflow:visible;"/>
				</clipPath>
				<polygon class="st35" points="6.1,8.1 6.3,17.7 4.1,20 3.9,10.3 				"/>
			</g>
			<g class="st0">
				<defs>
					<path id="SVGID_47_" class="st0" d="M6.3,17.7c0,2.3,1.9,4.1,4.2,4.1l-2.2,2.2c-2.3,0-4.1-1.8-4.2-4.1L6.3,17.7z"/>
				</defs>
				<clipPath id="SVGID_48_">
					<use xlink:href="#SVGID_47_"  style="overflow:visible;"/>
				</clipPath>
				<g class="st36">
					<g>
						<path class="st13" d="M6.3,17.7L4.1,20c0,2.3,1.9,4.1,4.2,4.1l2.2-2.2C8.2,21.8,6.3,20,6.3,17.7z"/>
						<line class="st13" x1="6.9" y1="19.8" x2="4.7" y2="22"/>
						<line class="st13" x1="8.4" y1="21.3" x2="6.2" y2="23.5"/>
					</g>
				</g>
				<path class="st37" d="M6.3,17.7c0,2.3,1.9,4.1,4.2,4.1l-2.2,2.2c-2.3,0-4.1-1.8-4.2-4.1L6.3,17.7z"/>
			</g>
			<g class="st0">
				<defs>
					<polygon id="SVGID_49_" class="st0" points="10.4,21.8 14.3,21.8 12,24.1 8.2,24.1 					"/>
				</defs>
				<clipPath id="SVGID_50_">
					<use xlink:href="#SVGID_49_"  style="overflow:visible;"/>
				</clipPath>
				<polygon class="st38" points="10.4,21.8 14.3,21.8 12,24.1 8.2,24.1 				"/>
			</g>
			<g class="st0">
				<defs>
					<polygon id="SVGID_51_" class="st0" points="14.3,21.8 14.3,23.8 12.1,26 12,24.1 					"/>
				</defs>
				<clipPath id="SVGID_52_">
					<use xlink:href="#SVGID_51_"  style="overflow:visible;"/>
				</clipPath>
				<polygon class="st39" points="14.3,21.8 14.3,23.8 12.1,26 12,24.1 				"/>
			</g>
			<g class="st0">
				<defs>
					<polygon id="SVGID_53_" class="st0" points="14.3,23.8 12.1,26 8.3,26 10.5,23.8 					"/>
				</defs>
				<clipPath id="SVGID_54_">
					<use xlink:href="#SVGID_53_"  style="overflow:visible;"/>
				</clipPath>
				<polygon class="st40" points="14.3,23.8 12.1,26 8.3,26 10.5,23.8 				"/>
			</g>
			<g class="st0">
				<defs>
					<path id="SVGID_55_" class="st0" d="M10.5,23.8L8.3,26c-3.4,0-6.1-2.7-6.2-6.1l2.2-2.2C4.3,21.1,7.1,23.8,10.5,23.8z"/>
				</defs>
				<clipPath id="SVGID_56_">
					<use xlink:href="#SVGID_55_"  style="overflow:visible;"/>
				</clipPath>
				<g class="st41">
					<g>
						<path class="st13" d="M10.5,23.8L8.3,26c-3.4,0-6.1-2.7-6.2-6.1l2.2-2.2C4.3,21.1,7.1,23.8,10.5,23.8z"/>
						<line class="st13" x1="7.4" y1="23" x2="5.2" y2="25.2"/>
						<line class="st13" x1="5.2" y1="20.8" x2="3" y2="23"/>
					</g>
				</g>
				<path class="st42" d="M10.5,23.8L8.3,26c-3.4,0-6.1-2.7-6.2-6.1l2.2-2.2C4.3,21.1,7.1,23.8,10.5,23.8z"/>
			</g>
			<g class="st0">
				<defs>
					<polygon id="SVGID_57_" class="st0" points="4.3,17.7 2.1,20 1.9,10.3 4.1,8.1 					"/>
				</defs>
				<clipPath id="SVGID_58_">
					<use xlink:href="#SVGID_57_"  style="overflow:visible;"/>
				</clipPath>
				<polygon class="st43" points="4.3,17.7 2.1,20 1.9,10.3 4.1,8.1 				"/>
			</g>
			<g class="st0">
				<defs>
					<path id="SVGID_59_" class="st0" d="M5.8,3.8C6.9,2.7,8.4,2,10.1,2L7.8,4.2C6.2,4.2,4.7,4.9,3.6,6C4.3,5.3,5.1,4.4,5.8,3.8z"/>
				</defs>
				<clipPath id="SVGID_60_">
					<use xlink:href="#SVGID_59_"  style="overflow:visible;"/>
				</clipPath>
				<g class="st44">
					<g>
						<path class="st13" d="M4.1,8.1l-2.2,2.2C1.8,7,4.5,4.2,7.8,4.2L10.1,2C6.7,2,4,4.7,4.1,8.1z"/>
						<line class="st13" x1="7" y1="2.8" x2="4.8" y2="5.1"/>
					</g>
				</g>
				<path class="st45" d="M5.8,3.8C6.9,2.7,8.4,2,10.1,2L7.8,4.2C6.2,4.2,4.7,4.9,3.6,6C4.3,5.3,5.1,4.4,5.8,3.8z"/>
			</g>
			<g class="st0">
				<defs>
					<path id="SVGID_61_" class="st0" d="M3.6,6l2.2-2.2C4.7,4.9,4.1,6.4,4.1,8.1l-2.2,2.2C1.8,8.6,2.5,7.1,3.6,6z"/>
				</defs>
				<clipPath id="SVGID_62_">
					<use xlink:href="#SVGID_61_"  style="overflow:visible;"/>
				</clipPath>
				<g class="st46">
					<g>
						<path class="st13" d="M4.1,8.1l-2.2,2.2C1.8,7,4.5,4.2,7.8,4.2L10.1,2C6.7,2,4,4.7,4.1,8.1z"/>
						<line class="st13" x1="4.9" y1="5" x2="2.6" y2="7.3"/>
					</g>
				</g>
				<path class="st47" d="M3.6,6l2.2-2.2C4.7,4.9,4.1,6.4,4.1,8.1l-2.2,2.2C1.8,8.6,2.5,7.1,3.6,6z"/>
			</g>
			<g class="st0">
				<defs>
					<polygon id="SVGID_63_" class="st0" points="10.1,2 23.6,2 21.4,4.2 7.8,4.2 					"/>
				</defs>
				<clipPath id="SVGID_64_">
					<use xlink:href="#SVGID_63_"  style="overflow:visible;"/>
				</clipPath>
				<polygon class="st48" points="10.1,2 23.6,2 21.4,4.2 7.8,4.2 				"/>
			</g>
			<g class="st0">
				<defs>
					<polygon id="SVGID_65_" class="st0" points="17.9,17.1 18,24.1 18,26 18.1,31 12.2,31 12.1,26 12,24.1 11.9,17.1 					"/>
				</defs>
				<clipPath id="SVGID_66_">
					<use xlink:href="#SVGID_65_"  style="overflow:visible;"/>
				</clipPath>
				<polygon class="st49" points="17.9,17.1 18,24.1 18,26 18.1,31 12.2,31 12.1,26 12,24.1 11.9,17.1 				"/>
			</g>
			<g class="st0">
				<defs>
					<polygon id="SVGID_67_" class="st0" points="20.1,14.9 20.2,21.8 20.2,23.8 20.3,28.8 14.4,28.8 14.3,23.8 14.3,21.8 
						14.1,14.9 					"/>
				</defs>
				<clipPath id="SVGID_68_">
					<use xlink:href="#SVGID_67_"  style="overflow:visible;"/>
				</clipPath>
				<polygon class="st50" points="20.1,14.9 20.2,21.8 20.2,23.8 20.3,28.8 14.4,28.8 14.3,23.8 14.3,21.8 14.1,14.9 				"/>
			</g>
			<g class="st0">
				<defs>
					<polygon id="SVGID_69_" class="st0" points="20.1,14.9 20.2,21.8 18,24.1 17.9,17.1 					"/>
				</defs>
				<clipPath id="SVGID_70_">
					<use xlink:href="#SVGID_69_"  style="overflow:visible;"/>
				</clipPath>
				<polygon class="st51" points="20.1,14.9 20.2,21.8 18,24.1 17.9,17.1 				"/>
			</g>
			<g class="st0">
				<defs>
					<polygon id="SVGID_71_" class="st0" points="20.2,21.8 20.2,23.8 18,26 18,24.1 					"/>
				</defs>
				<clipPath id="SVGID_72_">
					<use xlink:href="#SVGID_71_"  style="overflow:visible;"/>
				</clipPath>
				<polygon class="st52" points="20.2,21.8 20.2,23.8 18,26 18,24.1 				"/>
			</g>
			<g class="st0">
				<defs>
					<polygon id="SVGID_73_" class="st0" points="20.2,23.8 20.3,28.8 18.1,31 18,26 					"/>
				</defs>
				<clipPath id="SVGID_74_">
					<use xlink:href="#SVGID_73_"  style="overflow:visible;"/>
				</clipPath>
				<polygon class="st53" points="20.2,23.8 20.3,28.8 18.1,31 18,26 				"/>
			</g>
			<g class="st0">
				<defs>
					<polygon id="SVGID_75_" class="st0" points="20.3,28.8 18.1,31 12.2,31 14.4,28.8 					"/>
				</defs>
				<clipPath id="SVGID_76_">
					<use xlink:href="#SVGID_75_"  style="overflow:visible;"/>
				</clipPath>
				<polygon class="st54" points="20.3,28.8 18.1,31 12.2,31 14.4,28.8 				"/>
			</g>
			<g class="st0">
				<defs>
					<polygon id="SVGID_77_" class="st0" points="14.4,28.8 12.2,31 12.1,26 14.3,23.8 					"/>
				</defs>
				<clipPath id="SVGID_78_">
					<use xlink:href="#SVGID_77_"  style="overflow:visible;"/>
				</clipPath>
				<polygon class="st55" points="14.4,28.8 12.2,31 12.1,26 14.3,23.8 				"/>
			</g>
			<g class="st0">
				<defs>
					<polygon id="SVGID_79_" class="st0" points="14.3,23.8 12.1,26 12,24.1 14.3,21.8 					"/>
				</defs>
				<clipPath id="SVGID_80_">
					<use xlink:href="#SVGID_79_"  style="overflow:visible;"/>
				</clipPath>
				<polygon class="st56" points="14.3,23.8 12.1,26 12,24.1 14.3,21.8 				"/>
			</g>
			<g class="st0">
				<defs>
					<polygon id="SVGID_81_" class="st0" points="14.3,21.8 12,24.1 11.9,17.1 14.1,14.9 					"/>
				</defs>
				<clipPath id="SVGID_82_">
					<use xlink:href="#SVGID_81_"  style="overflow:visible;"/>
				</clipPath>
				<polygon class="st57" points="14.3,21.8 12,24.1 11.9,17.1 14.1,14.9 				"/>
			</g>
			<g class="st0">
				<defs>
					<polygon id="SVGID_83_" class="st0" points="14.1,14.9 20.1,14.9 17.9,17.1 11.9,17.1 					"/>
				</defs>
				<clipPath id="SVGID_84_">
					<use xlink:href="#SVGID_83_"  style="overflow:visible;"/>
				</clipPath>
				<polygon class="st58" points="14.1,14.9 20.1,14.9 17.9,17.1 11.9,17.1 				"/>
			</g>
			<g class="st0">
				<defs>
					<polygon id="SVGID_85_" class="st0" points="14.7,9.2 22.8,17.1 17.9,17.1 11.9,17.1 7,17.1 					"/>
				</defs>
				<clipPath id="SVGID_86_">
					<use xlink:href="#SVGID_85_"  style="overflow:visible;"/>
				</clipPath>
				<polygon class="st59" points="14.7,9.2 22.8,17.1 17.9,17.1 11.9,17.1 7,17.1 				"/>
			</g>
			<g class="st0">
				<defs>
					<polygon id="SVGID_87_" class="st0" points="16.9,7 25,14.9 20.1,14.9 14.1,14.9 9.2,14.9 					"/>
				</defs>
				<clipPath id="SVGID_88_">
					<use xlink:href="#SVGID_87_"  style="overflow:visible;"/>
				</clipPath>
				<polygon class="st60" points="16.9,7 25,14.9 20.1,14.9 14.1,14.9 9.2,14.9 				"/>
			</g>
			<g class="st0">
				<defs>
					<polygon id="SVGID_89_" class="st0" points="16.9,7 25,14.9 22.8,17.1 14.7,9.2 					"/>
				</defs>
				<clipPath id="SVGID_90_">
					<use xlink:href="#SVGID_89_"  style="overflow:visible;"/>
				</clipPath>
				<polygon class="st61" points="16.9,7 25,14.9 22.8,17.1 14.7,9.2 				"/>
			</g>
			<g class="st0">
				<defs>
					<polygon id="SVGID_91_" class="st0" points="25,14.9 22.8,17.1 17.9,17.1 20.1,14.9 					"/>
				</defs>
				<clipPath id="SVGID_92_">
					<use xlink:href="#SVGID_91_"  style="overflow:visible;"/>
				</clipPath>
				<polygon class="st62" points="25,14.9 22.8,17.1 17.9,17.1 20.1,14.9 				"/>
			</g>
			<g class="st0">
				<defs>
					<polygon id="SVGID_93_" class="st0" points="20.1,14.9 17.9,17.1 11.9,17.1 14.1,14.9 					"/>
				</defs>
				<clipPath id="SVGID_94_">
					<use xlink:href="#SVGID_93_"  style="overflow:visible;"/>
				</clipPath>
				<polygon class="st63" points="20.1,14.9 17.9,17.1 11.9,17.1 14.1,14.9 				"/>
			</g>
			<g class="st0">
				<defs>
					<polygon id="SVGID_95_" class="st0" points="14.1,14.9 11.9,17.1 7,17.1 9.2,14.9 					"/>
				</defs>
				<clipPath id="SVGID_96_">
					<use xlink:href="#SVGID_95_"  style="overflow:visible;"/>
				</clipPath>
				<polygon class="st64" points="14.1,14.9 11.9,17.1 7,17.1 9.2,14.9 				"/>
			</g>
			<g class="st0">
				<defs>
					<polygon id="SVGID_97_" class="st0" points="9.2,14.9 7,17.1 14.7,9.2 16.9,7 					"/>
				</defs>
				<clipPath id="SVGID_98_">
					<use xlink:href="#SVGID_97_"  style="overflow:visible;"/>
				</clipPath>
				<polygon class="st65" points="9.2,14.9 7,17.1 14.7,9.2 16.9,7 				"/>
			</g>
		</g>
	</g>
</g>
</svg>
