<?xml version="1.0" encoding="utf-8"?>
<svg viewBox="0 0 32 32" xmlns="http://www.w3.org/2000/svg" xmlns:xlink="http://www.w3.org/1999/xlink">
<style type="text/css">
	.st0{fill:#F5F5F5;}
	.st1{fill:none;stroke:#F5F5F5;stroke-width: 2;}
	.st2{fill:none;stroke:#F5F5F5;stroke-width: 2;stroke-dasharray:3.4286,3.4286;}
	.st3{fill:none;stroke:#F5F5F5;stroke-width: 2;stroke-dasharray:3.2,3.2;}
</style>
<g>
	<path class="st0" d="M7,21.9L3,10.3h2.4l2.8,8.6l2.7-8.6h2.4l-4,11.6H7z"/>
	<path class="st0" d="M14.5,21.9V10.3h2.3v11.6H14.5z"/>
	<path class="st0" d="M18.9,10.3H23c0.9,0,1.6,0.1,2.1,0.2c0.7,0.2,1.2,0.6,1.7,1.1c0.5,0.5,0.8,1.1,1.1,1.9
		c0.2,0.7,0.4,1.7,0.4,2.7c0,1-0.1,1.8-0.3,2.5c-0.3,0.8-0.7,1.5-1.2,2c-0.4,0.4-0.9,0.7-1.6,0.9c-0.5,0.2-1.2,0.2-2,0.2h-4.2V10.3z
		 M21.1,12.3v7.7h1.7c0.6,0,1.1,0,1.4-0.1c0.4-0.1,0.7-0.3,0.9-0.5c0.2-0.2,0.4-0.6,0.6-1.1s0.2-1.2,0.2-2.1s-0.1-1.6-0.2-2.1
		s-0.4-0.9-0.6-1.1c-0.3-0.3-0.6-0.5-1-0.5c-0.3-0.1-0.9-0.1-1.9-0.1H21.1z"/>
</g>
<g>
	<g>
		<polyline class="st1" points="30,24 30,26 28,26 		"/>
		<line class="st2" x1="24.6" y1="26" x2="5.7" y2="26"/>
		<polyline class="st1" points="4,26 2,26 2,24 		"/>
		<line class="st3" x1="2" y1="20.8" x2="2" y2="9.6"/>
		<polyline class="st1" points="2,8 2,6 4,6 		"/>
		<line class="st2" x1="7.4" y1="6" x2="26.3" y2="6"/>
		<polyline class="st1" points="28,6 30,6 30,8 		"/>
		<line class="st3" x1="30" y1="11.2" x2="30" y2="22.4"/>
	</g>
</g>
</svg>