<?xml version="1.0" encoding="utf-8"?>
<svg viewBox="0 0 32 32" xmlns="http://www.w3.org/2000/svg" xmlns:xlink="http://www.w3.org/1999/xlink">
<style type="text/css">
 polyline, line {fill:none;stroke:#F5F5F5;stroke-width:2;stroke-miterlimit:10;}
 path {fill:#F5F5F5;stroke:none;}
 .o{stroke-dasharray:4.2,4.2;}
 .e{stroke-dasharray:5,5;}
</style>
<g>
  <path d="M9.2,22L6,10h1.9l2.2,8.9l2.2-8.9h1.9l-3.2,12H9.2z"/>
  <path d="M15.1,22V10h1.8v12H15.1z"/>
  <path d="M18.6,10h3.3c0.7,0,1.3,0.1,1.7,0.2c0.5,0.2,1,0.6,1.3,1.1c0.4,0.5,0.7,1.2,0.8,1.9S26,15,26,16.1c0,1-0.1,1.8-0.3,2.6
    c-0.2,0.9-0.5,1.6-0.9,2.1c-0.3,0.4-0.7,0.7-1.3,1c-0.4,0.2-0.9,0.3-1.6,0.3h-3.4V10z M20.4,12V20h1.3c0.5,0,0.9,0,1.1-0.1
    c0.3-0.1,0.5-0.3,0.7-0.5c0.2-0.2,0.3-0.6,0.5-1.2c0.1-0.5,0.2-1.3,0.2-2.2c0-0.9-0.1-1.6-0.2-2.1c-0.1-0.5-0.3-0.9-0.5-1.2
    c-0.2-0.3-0.5-0.5-0.8-0.6c-0.2-0.1-0.7-0.1-1.5-0.1H20.4z"/>
</g>
<g>
  <g>
    <polyline points="29,23.5 29,26 26.5,26"/>
    <line class="o" x1="22.3" y1="26" x2="7.6" y2="26"/>
    <polyline points="5.5,26 3,26 3,23.5"/>
    <line class="e" x1="3" y1="18.5" x2="3" y2="11"/>
    <polyline points="3,8.5 3,6 5.5,6"/>
    <line class="o" x1="9.7" y1="6" x2="24.4" y2="6"/>
    <polyline points="26.5,6 29,6 29,8.5"/>
    <line class="e" x1="29" y1="13.5" x2="29" y2="21"/>
  </g>
</g>
</svg>
